<svg width="578" height="879" viewBox="0 0 578 879" fill="none" xmlns="http://www.w3.org/2000/svg">
<g filter="url(#filter0_d_1695_5441)">
<path d="M523.5 46H59L55.8846 49.6996C52.6542 53.5356 50.1362 57.9185 48.4495 62.6413C46.8286 67.18 46 71.9635 46 76.783V767.5V802L46.1347 806.04C46.3702 813.105 49.1655 819.843 54 825H518.5C517.501 818.009 517 810.956 517 803.893V802V74.2327C517 71.0819 517.232 67.9352 517.694 64.8183C518.56 58.9675 520.231 53.2644 522.658 47.8706L523.5 46Z" fill="white"/>
</g>
<path d="M136.204 97.84C136.991 97.9867 137.638 98.38 138.144 99.02C138.651 99.66 138.904 100.393 138.904 101.22C138.904 101.967 138.718 102.627 138.344 103.2C137.984 103.76 137.458 104.2 136.764 104.52C136.071 104.84 135.251 105 134.304 105H128.284V91.04H134.044C134.991 91.04 135.804 91.1933 136.484 91.5C137.178 91.8067 137.698 92.2333 138.044 92.78C138.404 93.3267 138.584 93.9467 138.584 94.64C138.584 95.4533 138.364 96.1333 137.924 96.68C137.498 97.2267 136.924 97.6133 136.204 97.84ZM131.084 96.8H133.644C134.311 96.8 134.824 96.6533 135.184 96.36C135.544 96.0533 135.724 95.62 135.724 95.06C135.724 94.5 135.544 94.0667 135.184 93.76C134.824 93.4533 134.311 93.3 133.644 93.3H131.084V96.8ZM133.904 102.72C134.584 102.72 135.111 102.56 135.484 102.24C135.871 101.92 136.064 101.467 136.064 100.88C136.064 100.28 135.864 99.8133 135.464 99.48C135.064 99.1333 134.524 98.96 133.844 98.96H131.084V102.72H133.904ZM147.616 105.14C146.309 105.14 145.109 104.833 144.016 104.22C142.923 103.607 142.056 102.76 141.416 101.68C140.776 100.587 140.456 99.3533 140.456 97.98C140.456 96.62 140.776 95.4 141.416 94.32C142.056 93.2267 142.923 92.3733 144.016 91.76C145.109 91.1467 146.309 90.84 147.616 90.84C148.936 90.84 150.136 91.1467 151.216 91.76C152.309 92.3733 153.169 93.2267 153.796 94.32C154.436 95.4 154.756 96.62 154.756 97.98C154.756 99.3533 154.436 100.587 153.796 101.68C153.169 102.76 152.309 103.607 151.216 104.22C150.123 104.833 148.923 105.14 147.616 105.14ZM147.616 102.64C148.456 102.64 149.196 102.453 149.836 102.08C150.476 101.693 150.976 101.147 151.336 100.44C151.696 99.7333 151.876 98.9133 151.876 97.98C151.876 97.0467 151.696 96.2333 151.336 95.54C150.976 94.8333 150.476 94.2933 149.836 93.92C149.196 93.5467 148.456 93.36 147.616 93.36C146.776 93.36 146.029 93.5467 145.376 93.92C144.736 94.2933 144.236 94.8333 143.876 95.54C143.516 96.2333 143.336 97.0467 143.336 97.98C143.336 98.9133 143.516 99.7333 143.876 100.44C144.236 101.147 144.736 101.693 145.376 102.08C146.029 102.453 146.776 102.64 147.616 102.64ZM164.759 97.84C165.546 97.9867 166.192 98.38 166.699 99.02C167.206 99.66 167.459 100.393 167.459 101.22C167.459 101.967 167.272 102.627 166.899 103.2C166.539 103.76 166.012 104.2 165.319 104.52C164.626 104.84 163.806 105 162.859 105H156.839V91.04H162.599C163.546 91.04 164.359 91.1933 165.039 91.5C165.732 91.8067 166.252 92.2333 166.599 92.78C166.959 93.3267 167.139 93.9467 167.139 94.64C167.139 95.4533 166.919 96.1333 166.479 96.68C166.052 97.2267 165.479 97.6133 164.759 97.84ZM159.639 96.8H162.199C162.866 96.8 163.379 96.6533 163.739 96.36C164.099 96.0533 164.279 95.62 164.279 95.06C164.279 94.5 164.099 94.0667 163.739 93.76C163.379 93.4533 162.866 93.3 162.199 93.3H159.639V96.8ZM162.459 102.72C163.139 102.72 163.666 102.56 164.039 102.24C164.426 101.92 164.619 101.467 164.619 100.88C164.619 100.28 164.419 99.8133 164.019 99.48C163.619 99.1333 163.079 98.96 162.399 98.96H159.639V102.72H162.459ZM178.251 102.34H172.691L171.771 105H168.831L173.851 91.02H177.111L182.131 105H179.171L178.251 102.34ZM177.491 100.1L175.471 94.26L173.451 100.1H177.491ZM193.507 91.04V93.3H189.787V105H186.987V93.3H183.267V91.04H193.507ZM204.11 102.34H198.55L197.63 105H194.69L199.71 91.02H202.97L207.99 105H205.03L204.11 102.34ZM203.35 100.1L201.33 94.26L199.31 100.1H203.35ZM212.666 102.78H217.266V105H209.866V91.04H212.666V102.78ZM226.926 105L221.846 98.78V105H219.046V91.04H221.846V97.3L226.926 91.04H230.306L224.546 97.96L230.466 105H226.926ZM237.128 105.14C236.154 105.14 235.274 104.973 234.488 104.64C233.714 104.307 233.101 103.827 232.648 103.2C232.194 102.573 231.961 101.833 231.948 100.98H234.948C234.988 101.553 235.188 102.007 235.548 102.34C235.921 102.673 236.428 102.84 237.068 102.84C237.721 102.84 238.234 102.687 238.608 102.38C238.981 102.06 239.168 101.647 239.168 101.14C239.168 100.727 239.041 100.387 238.788 100.12C238.534 99.8533 238.214 99.6467 237.828 99.5C237.454 99.34 236.934 99.1667 236.268 98.98C235.361 98.7133 234.621 98.4533 234.048 98.2C233.488 97.9333 233.001 97.54 232.588 97.02C232.188 96.4867 231.988 95.78 231.988 94.9C231.988 94.0733 232.194 93.3533 232.608 92.74C233.021 92.1267 233.601 91.66 234.348 91.34C235.094 91.0067 235.948 90.84 236.908 90.84C238.348 90.84 239.514 91.1933 240.408 91.9C241.314 92.5933 241.814 93.5667 241.908 94.82H238.828C238.801 94.34 238.594 93.9467 238.208 93.64C237.834 93.32 237.334 93.16 236.708 93.16C236.161 93.16 235.721 93.3 235.388 93.58C235.068 93.86 234.908 94.2667 234.908 94.8C234.908 95.1733 235.028 95.4867 235.268 95.74C235.521 95.98 235.828 96.18 236.188 96.34C236.561 96.4867 237.081 96.66 237.748 96.86C238.654 97.1267 239.394 97.3933 239.968 97.66C240.541 97.9267 241.034 98.3267 241.448 98.86C241.861 99.3933 242.068 100.093 242.068 100.96C242.068 101.707 241.874 102.4 241.488 103.04C241.101 103.68 240.534 104.193 239.788 104.58C239.041 104.953 238.154 105.14 237.128 105.14ZM252.061 93.3V96.8H256.761V99.02H252.061V102.72H257.361V105H249.261V91.02H257.361V93.3H252.061ZM268.265 105L265.245 100.3L262.505 105H259.345L263.745 97.96L259.285 91.04H262.505L265.525 95.72L268.245 91.04H271.405L267.025 98.06L271.485 105H268.265ZM283.796 95.36C283.796 96.1067 283.616 96.8067 283.256 97.46C282.91 98.1133 282.356 98.64 281.596 99.04C280.85 99.44 279.903 99.64 278.756 99.64H276.416V105H273.616V91.04H278.756C279.836 91.04 280.756 91.2267 281.516 91.6C282.276 91.9733 282.843 92.4867 283.216 93.14C283.603 93.7933 283.796 94.5333 283.796 95.36ZM278.636 97.38C279.41 97.38 279.983 97.2067 280.356 96.86C280.73 96.5 280.916 96 280.916 95.36C280.916 94 280.156 93.32 278.636 93.32H276.416V97.38H278.636ZM288.584 102.78H293.184V105H285.784V91.04H288.584V102.78ZM301.444 105.14C300.137 105.14 298.937 104.833 297.844 104.22C296.751 103.607 295.884 102.76 295.244 101.68C294.604 100.587 294.284 99.3533 294.284 97.98C294.284 96.62 294.604 95.4 295.244 94.32C295.884 93.2267 296.751 92.3733 297.844 91.76C298.937 91.1467 300.137 90.84 301.444 90.84C302.764 90.84 303.964 91.1467 305.044 91.76C306.137 92.3733 306.997 93.2267 307.624 94.32C308.264 95.4 308.584 96.62 308.584 97.98C308.584 99.3533 308.264 100.587 307.624 101.68C306.997 102.76 306.137 103.607 305.044 104.22C303.951 104.833 302.751 105.14 301.444 105.14ZM301.444 102.64C302.284 102.64 303.024 102.453 303.664 102.08C304.304 101.693 304.804 101.147 305.164 100.44C305.524 99.7333 305.704 98.9133 305.704 97.98C305.704 97.0467 305.524 96.2333 305.164 95.54C304.804 94.8333 304.304 94.2933 303.664 93.92C303.024 93.5467 302.284 93.36 301.444 93.36C300.604 93.36 299.857 93.5467 299.204 93.92C298.564 94.2933 298.064 94.8333 297.704 95.54C297.344 96.2333 297.164 97.0467 297.164 97.98C297.164 98.9133 297.344 99.7333 297.704 100.44C298.064 101.147 298.564 101.693 299.204 102.08C299.857 102.453 300.604 102.64 301.444 102.64ZM317.867 105L314.787 99.56H313.467V105H310.667V91.04H315.907C316.987 91.04 317.907 91.2333 318.667 91.62C319.427 91.9933 319.994 92.5067 320.367 93.16C320.754 93.8 320.947 94.52 320.947 95.32C320.947 96.24 320.68 97.0733 320.147 97.82C319.614 98.5533 318.82 99.06 317.767 99.34L321.107 105H317.867ZM313.467 97.46H315.807C316.567 97.46 317.134 97.28 317.507 96.92C317.88 96.5467 318.067 96.0333 318.067 95.38C318.067 94.74 317.88 94.2467 317.507 93.9C317.134 93.54 316.567 93.36 315.807 93.36H313.467V97.46ZM332.04 102.34H326.48L325.56 105H322.62L327.64 91.02H330.9L335.92 105H332.96L332.04 102.34ZM331.28 100.1L329.26 94.26L327.24 100.1H331.28ZM347.296 91.04V93.3H343.576V105H340.776V93.3H337.056V91.04H347.296ZM352.139 91.04V105H349.339V91.04H352.139ZM361.385 105.14C360.079 105.14 358.879 104.833 357.785 104.22C356.692 103.607 355.825 102.76 355.185 101.68C354.545 100.587 354.225 99.3533 354.225 97.98C354.225 96.62 354.545 95.4 355.185 94.32C355.825 93.2267 356.692 92.3733 357.785 91.76C358.879 91.1467 360.079 90.84 361.385 90.84C362.705 90.84 363.905 91.1467 364.985 91.76C366.079 92.3733 366.939 93.2267 367.565 94.32C368.205 95.4 368.525 96.62 368.525 97.98C368.525 99.3533 368.205 100.587 367.565 101.68C366.939 102.76 366.079 103.607 364.985 104.22C363.892 104.833 362.692 105.14 361.385 105.14ZM361.385 102.64C362.225 102.64 362.965 102.453 363.605 102.08C364.245 101.693 364.745 101.147 365.105 100.44C365.465 99.7333 365.645 98.9133 365.645 97.98C365.645 97.0467 365.465 96.2333 365.105 95.54C364.745 94.8333 364.245 94.2933 363.605 93.92C362.965 93.5467 362.225 93.36 361.385 93.36C360.545 93.36 359.799 93.5467 359.145 93.92C358.505 94.2933 358.005 94.8333 357.645 95.54C357.285 96.2333 357.105 97.0467 357.105 97.98C357.105 98.9133 357.285 99.7333 357.645 100.44C358.005 101.147 358.505 101.693 359.145 102.08C359.799 102.453 360.545 102.64 361.385 102.64ZM382.549 105H379.749L373.409 95.42V105H370.609V91.02H373.409L379.749 100.62V91.02H382.549V105ZM394.901 105.14C393.928 105.14 393.048 104.973 392.261 104.64C391.488 104.307 390.875 103.827 390.421 103.2C389.968 102.573 389.735 101.833 389.721 100.98H392.721C392.761 101.553 392.961 102.007 393.321 102.34C393.695 102.673 394.201 102.84 394.841 102.84C395.495 102.84 396.008 102.687 396.381 102.38C396.755 102.06 396.941 101.647 396.941 101.14C396.941 100.727 396.815 100.387 396.561 100.12C396.308 99.8533 395.988 99.6467 395.601 99.5C395.228 99.34 394.708 99.1667 394.041 98.98C393.135 98.7133 392.395 98.4533 391.821 98.2C391.261 97.9333 390.775 97.54 390.361 97.02C389.961 96.4867 389.761 95.78 389.761 94.9C389.761 94.0733 389.968 93.3533 390.381 92.74C390.795 92.1267 391.375 91.66 392.121 91.34C392.868 91.0067 393.721 90.84 394.681 90.84C396.121 90.84 397.288 91.1933 398.181 91.9C399.088 92.5933 399.588 93.5667 399.681 94.82H396.601C396.575 94.34 396.368 93.9467 395.981 93.64C395.608 93.32 395.108 93.16 394.481 93.16C393.935 93.16 393.495 93.3 393.161 93.58C392.841 93.86 392.681 94.2667 392.681 94.8C392.681 95.1733 392.801 95.4867 393.041 95.74C393.295 95.98 393.601 96.18 393.961 96.34C394.335 96.4867 394.855 96.66 395.521 96.86C396.428 97.1267 397.168 97.3933 397.741 97.66C398.315 97.9267 398.808 98.3267 399.221 98.86C399.635 99.3933 399.841 100.093 399.841 100.96C399.841 101.707 399.648 102.4 399.261 103.04C398.875 103.68 398.308 104.193 397.561 104.58C396.815 104.953 395.928 105.14 394.901 105.14ZM413.849 91.04V105H411.049V99.06H405.069V105H402.269V91.04H405.069V96.78H411.049V91.04H413.849ZM423.085 105.14C421.778 105.14 420.578 104.833 419.485 104.22C418.391 103.607 417.525 102.76 416.885 101.68C416.245 100.587 415.925 99.3533 415.925 97.98C415.925 96.62 416.245 95.4 416.885 94.32C417.525 93.2267 418.391 92.3733 419.485 91.76C420.578 91.1467 421.778 90.84 423.085 90.84C424.405 90.84 425.605 91.1467 426.685 91.76C427.778 92.3733 428.638 93.2267 429.265 94.32C429.905 95.4 430.225 96.62 430.225 97.98C430.225 99.3533 429.905 100.587 429.265 101.68C428.638 102.76 427.778 103.607 426.685 104.22C425.591 104.833 424.391 105.14 423.085 105.14ZM423.085 102.64C423.925 102.64 424.665 102.453 425.305 102.08C425.945 101.693 426.445 101.147 426.805 100.44C427.165 99.7333 427.345 98.9133 427.345 97.98C427.345 97.0467 427.165 96.2333 426.805 95.54C426.445 94.8333 425.945 94.2933 425.305 93.92C424.665 93.5467 423.925 93.36 423.085 93.36C422.245 93.36 421.498 93.5467 420.845 93.92C420.205 94.2933 419.705 94.8333 419.345 95.54C418.985 96.2333 418.805 97.0467 418.805 97.98C418.805 98.9133 418.985 99.7333 419.345 100.44C419.705 101.147 420.205 101.693 420.845 102.08C421.498 102.453 422.245 102.64 423.085 102.64ZM442.488 95.36C442.488 96.1067 442.308 96.8067 441.948 97.46C441.601 98.1133 441.048 98.64 440.288 99.04C439.541 99.44 438.594 99.64 437.448 99.64H435.108V105H432.308V91.04H437.448C438.528 91.04 439.448 91.2267 440.208 91.6C440.968 91.9733 441.534 92.4867 441.908 93.14C442.294 93.7933 442.488 94.5333 442.488 95.36ZM437.328 97.38C438.101 97.38 438.674 97.2067 439.048 96.86C439.421 96.5 439.608 96 439.608 95.36C439.608 94 438.848 93.32 437.328 93.32H435.108V97.38H437.328Z" fill="#1B1D2E"/>
<path d="M127.436 145.969L125.012 154.333H123.788L121.844 147.601L119.828 154.333L118.616 154.345L116.276 145.969H117.44L119.264 153.061L121.28 145.969H122.504L124.424 153.037L126.26 145.969H127.436ZM134.631 150.793C134.631 151.001 134.619 151.221 134.595 151.453H129.339C129.379 152.101 129.599 152.609 129.999 152.977C130.407 153.337 130.899 153.517 131.475 153.517C131.947 153.517 132.339 153.409 132.651 153.193C132.971 152.969 133.195 152.673 133.323 152.305H134.499C134.323 152.937 133.971 153.453 133.443 153.853C132.915 154.245 132.259 154.441 131.475 154.441C130.851 154.441 130.291 154.301 129.795 154.021C129.307 153.741 128.923 153.345 128.643 152.833C128.363 152.313 128.223 151.713 128.223 151.033C128.223 150.353 128.359 149.757 128.631 149.245C128.903 148.733 129.283 148.341 129.771 148.069C130.267 147.789 130.835 147.649 131.475 147.649C132.099 147.649 132.651 147.785 133.131 148.057C133.611 148.329 133.979 148.705 134.235 149.185C134.499 149.657 134.631 150.193 134.631 150.793ZM133.503 150.565C133.503 150.149 133.411 149.793 133.227 149.497C133.043 149.193 132.791 148.965 132.471 148.813C132.159 148.653 131.811 148.573 131.427 148.573C130.875 148.573 130.403 148.749 130.011 149.101C129.627 149.453 129.407 149.941 129.351 150.565H133.503ZM136.24 145.969H137.452L136.3 148.693H135.532L136.24 145.969ZM139.789 145.453V154.333H138.697V145.453H139.789ZM142.743 145.453V154.333H141.651V145.453H142.743ZM150.479 148.657H149.099V154.333H148.007V148.657H147.155V147.757H148.007V147.289C148.007 146.553 148.195 146.017 148.571 145.681C148.955 145.337 149.567 145.165 150.407 145.165V146.077C149.927 146.077 149.587 146.173 149.387 146.365C149.195 146.549 149.099 146.857 149.099 147.289V147.757H150.479V148.657ZM152.316 146.689C152.108 146.689 151.932 146.617 151.788 146.473C151.644 146.329 151.572 146.153 151.572 145.945C151.572 145.737 151.644 145.561 151.788 145.417C151.932 145.273 152.108 145.201 152.316 145.201C152.516 145.201 152.684 145.273 152.82 145.417C152.964 145.561 153.036 145.737 153.036 145.945C153.036 146.153 152.964 146.329 152.82 146.473C152.684 146.617 152.516 146.689 152.316 146.689ZM152.844 147.757V154.333H151.752V147.757H152.844ZM157.417 147.649C157.985 147.649 158.481 147.773 158.905 148.021C159.337 148.269 159.657 148.581 159.865 148.957V147.757H160.969V154.477C160.969 155.077 160.841 155.609 160.585 156.073C160.329 156.545 159.961 156.913 159.481 157.177C159.009 157.441 158.457 157.573 157.825 157.573C156.961 157.573 156.241 157.369 155.665 156.961C155.089 156.553 154.749 155.997 154.645 155.293H155.725C155.845 155.693 156.093 156.013 156.469 156.253C156.845 156.501 157.297 156.625 157.825 156.625C158.425 156.625 158.913 156.437 159.289 156.061C159.673 155.685 159.865 155.157 159.865 154.477V153.097C159.649 153.481 159.329 153.801 158.905 154.057C158.481 154.313 157.985 154.441 157.417 154.441C156.833 154.441 156.301 154.297 155.821 154.009C155.349 153.721 154.977 153.317 154.705 152.797C154.433 152.277 154.297 151.685 154.297 151.021C154.297 150.349 154.433 149.761 154.705 149.257C154.977 148.745 155.349 148.349 155.821 148.069C156.301 147.789 156.833 147.649 157.417 147.649ZM159.865 151.033C159.865 150.537 159.765 150.105 159.565 149.737C159.365 149.369 159.093 149.089 158.749 148.897C158.413 148.697 158.041 148.597 157.633 148.597C157.225 148.597 156.853 148.693 156.517 148.885C156.181 149.077 155.913 149.357 155.713 149.725C155.513 150.093 155.413 150.525 155.413 151.021C155.413 151.525 155.513 151.965 155.713 152.341C155.913 152.709 156.181 152.993 156.517 153.193C156.853 153.385 157.225 153.481 157.633 153.481C158.041 153.481 158.413 153.385 158.749 153.193C159.093 152.993 159.365 152.709 159.565 152.341C159.765 151.965 159.865 151.529 159.865 151.033ZM168.647 147.757V154.333H167.555V153.361C167.347 153.697 167.055 153.961 166.679 154.153C166.311 154.337 165.903 154.429 165.455 154.429C164.943 154.429 164.483 154.325 164.075 154.117C163.667 153.901 163.343 153.581 163.103 153.157C162.871 152.733 162.755 152.217 162.755 151.609V147.757H163.835V151.465C163.835 152.113 163.999 152.613 164.327 152.965C164.655 153.309 165.103 153.481 165.671 153.481C166.255 153.481 166.715 153.301 167.051 152.941C167.387 152.581 167.555 152.057 167.555 151.369V147.757H168.647ZM171.582 148.825C171.774 148.449 172.046 148.157 172.398 147.949C172.758 147.741 173.194 147.637 173.706 147.637V148.765H173.418C172.194 148.765 171.582 149.429 171.582 150.757V154.333H170.49V147.757H171.582V148.825ZM180.967 150.793C180.967 151.001 180.955 151.221 180.931 151.453H175.675C175.715 152.101 175.935 152.609 176.335 152.977C176.743 153.337 177.235 153.517 177.811 153.517C178.283 153.517 178.675 153.409 178.987 153.193C179.307 152.969 179.531 152.673 179.659 152.305H180.835C180.659 152.937 180.307 153.453 179.779 153.853C179.251 154.245 178.595 154.441 177.811 154.441C177.187 154.441 176.627 154.301 176.131 154.021C175.643 153.741 175.259 153.345 174.979 152.833C174.699 152.313 174.559 151.713 174.559 151.033C174.559 150.353 174.695 149.757 174.967 149.245C175.239 148.733 175.619 148.341 176.107 148.069C176.603 147.789 177.171 147.649 177.811 147.649C178.435 147.649 178.987 147.785 179.467 148.057C179.947 148.329 180.315 148.705 180.571 149.185C180.835 149.657 180.967 150.193 180.967 150.793ZM179.839 150.565C179.839 150.149 179.747 149.793 179.563 149.497C179.379 149.193 179.127 148.965 178.807 148.813C178.495 148.653 178.147 148.573 177.763 148.573C177.211 148.573 176.739 148.749 176.347 149.101C175.963 149.453 175.743 149.941 175.687 150.565H179.839ZM186.172 146.689C185.964 146.689 185.788 146.617 185.644 146.473C185.5 146.329 185.428 146.153 185.428 145.945C185.428 145.737 185.5 145.561 185.644 145.417C185.788 145.273 185.964 145.201 186.172 145.201C186.372 145.201 186.54 145.273 186.676 145.417C186.82 145.561 186.892 145.737 186.892 145.945C186.892 146.153 186.82 146.329 186.676 146.473C186.54 146.617 186.372 146.689 186.172 146.689ZM186.7 147.757V154.333H185.608V147.757H186.7ZM189.893 148.657V152.533C189.893 152.853 189.961 153.081 190.097 153.217C190.233 153.345 190.469 153.409 190.805 153.409H191.609V154.333H190.625C190.017 154.333 189.561 154.193 189.257 153.913C188.953 153.633 188.801 153.173 188.801 152.533V148.657H187.949V147.757H188.801V146.101H189.893V147.757H191.609V148.657H189.893ZM198.999 154.441C198.383 154.441 197.823 154.301 197.319 154.021C196.823 153.741 196.431 153.345 196.143 152.833C195.863 152.313 195.723 151.713 195.723 151.033C195.723 150.361 195.867 149.769 196.155 149.257C196.451 148.737 196.851 148.341 197.355 148.069C197.859 147.789 198.423 147.649 199.047 147.649C199.671 147.649 200.235 147.789 200.739 148.069C201.243 148.341 201.639 148.733 201.927 149.245C202.223 149.757 202.371 150.353 202.371 151.033C202.371 151.713 202.219 152.313 201.915 152.833C201.619 153.345 201.215 153.741 200.703 154.021C200.191 154.301 199.623 154.441 198.999 154.441ZM198.999 153.481C199.391 153.481 199.759 153.389 200.103 153.205C200.447 153.021 200.723 152.745 200.931 152.377C201.147 152.009 201.255 151.561 201.255 151.033C201.255 150.505 201.151 150.057 200.943 149.689C200.735 149.321 200.463 149.049 200.127 148.873C199.791 148.689 199.427 148.597 199.035 148.597C198.635 148.597 198.267 148.689 197.931 148.873C197.603 149.049 197.339 149.321 197.139 149.689C196.939 150.057 196.839 150.505 196.839 151.033C196.839 151.569 196.935 152.021 197.127 152.389C197.327 152.757 197.591 153.033 197.919 153.217C198.247 153.393 198.607 153.481 198.999 153.481ZM209.639 147.757V154.333H208.547V153.361C208.339 153.697 208.047 153.961 207.671 154.153C207.303 154.337 206.895 154.429 206.447 154.429C205.935 154.429 205.475 154.325 205.067 154.117C204.659 153.901 204.335 153.581 204.095 153.157C203.863 152.733 203.747 152.217 203.747 151.609V147.757H204.827V151.465C204.827 152.113 204.991 152.613 205.319 152.965C205.647 153.309 206.095 153.481 206.663 153.481C207.247 153.481 207.707 153.301 208.043 152.941C208.379 152.581 208.547 152.057 208.547 151.369V147.757H209.639ZM212.815 148.657V152.533C212.815 152.853 212.883 153.081 213.019 153.217C213.155 153.345 213.391 153.409 213.727 153.409H214.531V154.333H213.547C212.939 154.333 212.483 154.193 212.179 153.913C211.875 153.633 211.723 153.173 211.723 152.533V148.657H210.871V147.757H211.723V146.101H212.815V147.757H214.531V148.657H212.815ZM216.982 152.821L215.638 156.049H214.906L215.782 152.821H216.982ZM222.764 148.657V152.533C222.764 152.853 222.832 153.081 222.968 153.217C223.104 153.345 223.34 153.409 223.676 153.409H224.48V154.333H223.496C222.888 154.333 222.432 154.193 222.128 153.913C221.824 153.633 221.672 153.173 221.672 152.533V148.657H220.82V147.757H221.672V146.101H222.764V147.757H224.48V148.657H222.764ZM228.671 154.441C228.055 154.441 227.495 154.301 226.991 154.021C226.495 153.741 226.103 153.345 225.815 152.833C225.535 152.313 225.395 151.713 225.395 151.033C225.395 150.361 225.539 149.769 225.827 149.257C226.123 148.737 226.523 148.341 227.027 148.069C227.531 147.789 228.095 147.649 228.719 147.649C229.343 147.649 229.907 147.789 230.411 148.069C230.915 148.341 231.311 148.733 231.599 149.245C231.895 149.757 232.043 150.353 232.043 151.033C232.043 151.713 231.891 152.313 231.587 152.833C231.291 153.345 230.887 153.741 230.375 154.021C229.863 154.301 229.295 154.441 228.671 154.441ZM228.671 153.481C229.063 153.481 229.431 153.389 229.775 153.205C230.119 153.021 230.395 152.745 230.603 152.377C230.819 152.009 230.927 151.561 230.927 151.033C230.927 150.505 230.823 150.057 230.615 149.689C230.407 149.321 230.135 149.049 229.799 148.873C229.463 148.689 229.099 148.597 228.707 148.597C228.307 148.597 227.939 148.689 227.603 148.873C227.275 149.049 227.011 149.321 226.811 149.689C226.611 150.057 226.511 150.505 226.511 151.033C226.511 151.569 226.607 152.021 226.799 152.389C226.999 152.757 227.263 153.033 227.591 153.217C227.919 153.393 228.279 153.481 228.671 153.481ZM236.191 147.649C236.759 147.649 237.255 147.773 237.679 148.021C238.111 148.269 238.431 148.581 238.639 148.957V147.757H239.743V154.477C239.743 155.077 239.615 155.609 239.359 156.073C239.103 156.545 238.735 156.913 238.255 157.177C237.783 157.441 237.231 157.573 236.599 157.573C235.735 157.573 235.015 157.369 234.439 156.961C233.863 156.553 233.523 155.997 233.419 155.293H234.499C234.619 155.693 234.867 156.013 235.243 156.253C235.619 156.501 236.071 156.625 236.599 156.625C237.199 156.625 237.687 156.437 238.063 156.061C238.447 155.685 238.639 155.157 238.639 154.477V153.097C238.423 153.481 238.103 153.801 237.679 154.057C237.255 154.313 236.759 154.441 236.191 154.441C235.607 154.441 235.075 154.297 234.595 154.009C234.123 153.721 233.751 153.317 233.479 152.797C233.207 152.277 233.071 151.685 233.071 151.021C233.071 150.349 233.207 149.761 233.479 149.257C233.751 148.745 234.123 148.349 234.595 148.069C235.075 147.789 235.607 147.649 236.191 147.649ZM238.639 151.033C238.639 150.537 238.539 150.105 238.339 149.737C238.139 149.369 237.867 149.089 237.523 148.897C237.187 148.697 236.815 148.597 236.407 148.597C235.999 148.597 235.627 148.693 235.291 148.885C234.955 149.077 234.687 149.357 234.487 149.725C234.287 150.093 234.187 150.525 234.187 151.021C234.187 151.525 234.287 151.965 234.487 152.341C234.687 152.709 234.955 152.993 235.291 153.193C235.627 153.385 235.999 153.481 236.407 153.481C236.815 153.481 237.187 153.385 237.523 153.193C237.867 152.993 238.139 152.709 238.339 152.341C238.539 151.965 238.639 151.529 238.639 151.033ZM247.588 150.793C247.588 151.001 247.576 151.221 247.552 151.453H242.296C242.336 152.101 242.556 152.609 242.956 152.977C243.364 153.337 243.856 153.517 244.432 153.517C244.904 153.517 245.296 153.409 245.608 153.193C245.928 152.969 246.152 152.673 246.28 152.305H247.456C247.28 152.937 246.928 153.453 246.4 153.853C245.872 154.245 245.216 154.441 244.432 154.441C243.808 154.441 243.248 154.301 242.752 154.021C242.264 153.741 241.88 153.345 241.6 152.833C241.32 152.313 241.18 151.713 241.18 151.033C241.18 150.353 241.316 149.757 241.588 149.245C241.86 148.733 242.24 148.341 242.728 148.069C243.224 147.789 243.792 147.649 244.432 147.649C245.056 147.649 245.608 147.785 246.088 148.057C246.568 148.329 246.936 148.705 247.192 149.185C247.456 149.657 247.588 150.193 247.588 150.793ZM246.46 150.565C246.46 150.149 246.368 149.793 246.184 149.497C246 149.193 245.748 148.965 245.428 148.813C245.116 148.653 244.768 148.573 244.384 148.573C243.832 148.573 243.36 148.749 242.968 149.101C242.584 149.453 242.364 149.941 242.308 150.565H246.46ZM250.361 148.657V152.533C250.361 152.853 250.429 153.081 250.565 153.217C250.701 153.345 250.937 153.409 251.273 153.409H252.077V154.333H251.093C250.485 154.333 250.029 154.193 249.725 153.913C249.421 153.633 249.269 153.173 249.269 152.533V148.657H248.417V147.757H249.269V146.101H250.361V147.757H252.077V148.657H250.361ZM256.665 147.637C257.161 147.637 257.609 147.745 258.009 147.961C258.409 148.169 258.721 148.485 258.945 148.909C259.177 149.333 259.293 149.849 259.293 150.457V154.333H258.213V150.613C258.213 149.957 258.049 149.457 257.721 149.113C257.393 148.761 256.945 148.585 256.377 148.585C255.801 148.585 255.341 148.765 254.997 149.125C254.661 149.485 254.493 150.009 254.493 150.697V154.333H253.401V145.453H254.493V148.693C254.709 148.357 255.005 148.097 255.381 147.913C255.765 147.729 256.193 147.637 256.665 147.637ZM267.076 150.793C267.076 151.001 267.064 151.221 267.04 151.453H261.784C261.824 152.101 262.044 152.609 262.444 152.977C262.852 153.337 263.344 153.517 263.92 153.517C264.392 153.517 264.784 153.409 265.096 153.193C265.416 152.969 265.64 152.673 265.768 152.305H266.944C266.768 152.937 266.416 153.453 265.888 153.853C265.36 154.245 264.704 154.441 263.92 154.441C263.296 154.441 262.736 154.301 262.24 154.021C261.752 153.741 261.368 153.345 261.088 152.833C260.808 152.313 260.668 151.713 260.668 151.033C260.668 150.353 260.804 149.757 261.076 149.245C261.348 148.733 261.728 148.341 262.216 148.069C262.712 147.789 263.28 147.649 263.92 147.649C264.544 147.649 265.096 147.785 265.576 148.057C266.056 148.329 266.424 148.705 266.68 149.185C266.944 149.657 267.076 150.193 267.076 150.793ZM265.948 150.565C265.948 150.149 265.856 149.793 265.672 149.497C265.488 149.193 265.236 148.965 264.916 148.813C264.604 148.653 264.256 148.573 263.872 148.573C263.32 148.573 262.848 148.749 262.456 149.101C262.072 149.453 261.852 149.941 261.796 150.565H265.948ZM269.61 148.825C269.802 148.449 270.074 148.157 270.426 147.949C270.786 147.741 271.222 147.637 271.734 147.637V148.765H271.446C270.222 148.765 269.61 149.429 269.61 150.757V154.333H268.518V147.757H269.61V148.825ZM273.342 154.405C273.134 154.405 272.958 154.333 272.814 154.189C272.67 154.045 272.598 153.869 272.598 153.661C272.598 153.453 272.67 153.277 272.814 153.133C272.958 152.989 273.134 152.917 273.342 152.917C273.542 152.917 273.71 152.989 273.846 153.133C273.99 153.277 274.062 153.453 274.062 153.661C274.062 153.869 273.99 154.045 273.846 154.189C273.71 154.333 273.542 154.405 273.342 154.405Z" fill="#1B1D2E"/>
<path d="M388.072 171.969V172.857H385.792V180.333H384.7V172.857H382.408V171.969H388.072ZM392.284 180.441C391.668 180.441 391.108 180.301 390.604 180.021C390.108 179.741 389.716 179.345 389.428 178.833C389.148 178.313 389.008 177.713 389.008 177.033C389.008 176.361 389.152 175.769 389.44 175.257C389.736 174.737 390.136 174.341 390.64 174.069C391.144 173.789 391.708 173.649 392.332 173.649C392.956 173.649 393.52 173.789 394.024 174.069C394.528 174.341 394.924 174.733 395.212 175.245C395.508 175.757 395.656 176.353 395.656 177.033C395.656 177.713 395.504 178.313 395.2 178.833C394.904 179.345 394.5 179.741 393.988 180.021C393.476 180.301 392.908 180.441 392.284 180.441ZM392.284 179.481C392.676 179.481 393.044 179.389 393.388 179.205C393.732 179.021 394.008 178.745 394.216 178.377C394.432 178.009 394.54 177.561 394.54 177.033C394.54 176.505 394.436 176.057 394.228 175.689C394.02 175.321 393.748 175.049 393.412 174.873C393.076 174.689 392.712 174.597 392.32 174.597C391.92 174.597 391.552 174.689 391.216 174.873C390.888 175.049 390.624 175.321 390.424 175.689C390.224 176.057 390.124 176.505 390.124 177.033C390.124 177.569 390.22 178.021 390.412 178.389C390.612 178.757 390.876 179.033 391.204 179.217C391.532 179.393 391.892 179.481 392.284 179.481ZM406.627 174.393C406.395 173.905 406.059 173.529 405.619 173.265C405.179 172.993 404.667 172.857 404.083 172.857C403.499 172.857 402.971 172.993 402.499 173.265C402.035 173.529 401.667 173.913 401.395 174.417C401.131 174.913 400.999 175.489 400.999 176.145C400.999 176.801 401.131 177.377 401.395 177.873C401.667 178.369 402.035 178.753 402.499 179.025C402.971 179.289 403.499 179.421 404.083 179.421C404.899 179.421 405.571 179.177 406.099 178.689C406.627 178.201 406.935 177.541 407.023 176.709H403.687V175.821H408.187V176.661C408.123 177.349 407.907 177.981 407.539 178.557C407.171 179.125 406.687 179.577 406.087 179.913C405.487 180.241 404.819 180.405 404.083 180.405C403.307 180.405 402.599 180.225 401.959 179.865C401.319 179.497 400.811 178.989 400.435 178.341C400.067 177.693 399.883 176.961 399.883 176.145C399.883 175.329 400.067 174.597 400.435 173.949C400.811 173.293 401.319 172.785 401.959 172.425C402.599 172.057 403.307 171.873 404.083 171.873C404.971 171.873 405.755 172.093 406.435 172.533C407.123 172.973 407.623 173.593 407.935 174.393H406.627ZM412.499 180.441C411.883 180.441 411.323 180.301 410.819 180.021C410.323 179.741 409.931 179.345 409.643 178.833C409.363 178.313 409.223 177.713 409.223 177.033C409.223 176.361 409.367 175.769 409.655 175.257C409.951 174.737 410.351 174.341 410.855 174.069C411.359 173.789 411.923 173.649 412.547 173.649C413.171 173.649 413.735 173.789 414.239 174.069C414.743 174.341 415.139 174.733 415.427 175.245C415.723 175.757 415.871 176.353 415.871 177.033C415.871 177.713 415.719 178.313 415.415 178.833C415.119 179.345 414.715 179.741 414.203 180.021C413.691 180.301 413.123 180.441 412.499 180.441ZM412.499 179.481C412.891 179.481 413.259 179.389 413.603 179.205C413.947 179.021 414.223 178.745 414.431 178.377C414.647 178.009 414.755 177.561 414.755 177.033C414.755 176.505 414.651 176.057 414.443 175.689C414.235 175.321 413.963 175.049 413.627 174.873C413.291 174.689 412.927 174.597 412.535 174.597C412.135 174.597 411.767 174.689 411.431 174.873C411.103 175.049 410.839 175.321 410.639 175.689C410.439 176.057 410.339 176.505 410.339 177.033C410.339 177.569 410.435 178.021 410.627 178.389C410.827 178.757 411.091 179.033 411.419 179.217C411.747 179.393 412.107 179.481 412.499 179.481ZM424.298 180.417C423.522 180.417 422.814 180.237 422.174 179.877C421.534 179.509 421.026 179.001 420.65 178.353C420.282 177.697 420.098 176.961 420.098 176.145C420.098 175.329 420.282 174.597 420.65 173.949C421.026 173.293 421.534 172.785 422.174 172.425C422.814 172.057 423.522 171.873 424.298 171.873C425.082 171.873 425.794 172.057 426.434 172.425C427.074 172.785 427.578 173.289 427.946 173.937C428.314 174.585 428.498 175.321 428.498 176.145C428.498 176.969 428.314 177.705 427.946 178.353C427.578 179.001 427.074 179.509 426.434 179.877C425.794 180.237 425.082 180.417 424.298 180.417ZM424.298 179.469C424.882 179.469 425.406 179.333 425.87 179.061C426.342 178.789 426.71 178.401 426.974 177.897C427.246 177.393 427.382 176.809 427.382 176.145C427.382 175.473 427.246 174.889 426.974 174.393C426.71 173.889 426.346 173.501 425.882 173.229C425.418 172.957 424.89 172.821 424.298 172.821C423.706 172.821 423.178 172.957 422.714 173.229C422.25 173.501 421.882 173.889 421.61 174.393C421.346 174.889 421.214 175.473 421.214 176.145C421.214 176.809 421.346 177.393 421.61 177.897C421.882 178.401 422.25 178.789 422.714 179.061C423.186 179.333 423.714 179.469 424.298 179.469ZM431.032 174.825C431.224 174.449 431.496 174.157 431.848 173.949C432.208 173.741 432.644 173.637 433.156 173.637V174.765H432.868C431.644 174.765 431.032 175.429 431.032 176.757V180.333H429.94V173.757H431.032V174.825ZM434.008 177.021C434.008 176.349 434.144 175.761 434.416 175.257C434.688 174.745 435.06 174.349 435.532 174.069C436.012 173.789 436.548 173.649 437.14 173.649C437.652 173.649 438.128 173.769 438.568 174.009C439.008 174.241 439.344 174.549 439.576 174.933V171.453H440.68V180.333H439.576V179.097C439.36 179.489 439.04 179.813 438.616 180.069C438.192 180.317 437.696 180.441 437.128 180.441C436.544 180.441 436.012 180.297 435.532 180.009C435.06 179.721 434.688 179.317 434.416 178.797C434.144 178.277 434.008 177.685 434.008 177.021ZM439.576 177.033C439.576 176.537 439.476 176.105 439.276 175.737C439.076 175.369 438.804 175.089 438.46 174.897C438.124 174.697 437.752 174.597 437.344 174.597C436.936 174.597 436.564 174.693 436.228 174.885C435.892 175.077 435.624 175.357 435.424 175.725C435.224 176.093 435.124 176.525 435.124 177.021C435.124 177.525 435.224 177.965 435.424 178.341C435.624 178.709 435.892 178.993 436.228 179.193C436.564 179.385 436.936 179.481 437.344 179.481C437.752 179.481 438.124 179.385 438.46 179.193C438.804 178.993 439.076 178.709 439.276 178.341C439.476 177.965 439.576 177.529 439.576 177.033ZM448.526 176.793C448.526 177.001 448.514 177.221 448.49 177.453H443.234C443.274 178.101 443.494 178.609 443.894 178.977C444.302 179.337 444.794 179.517 445.37 179.517C445.842 179.517 446.234 179.409 446.546 179.193C446.866 178.969 447.09 178.673 447.218 178.305H448.394C448.218 178.937 447.866 179.453 447.338 179.853C446.81 180.245 446.154 180.441 445.37 180.441C444.746 180.441 444.186 180.301 443.69 180.021C443.202 179.741 442.818 179.345 442.538 178.833C442.258 178.313 442.118 177.713 442.118 177.033C442.118 176.353 442.254 175.757 442.526 175.245C442.798 174.733 443.178 174.341 443.666 174.069C444.162 173.789 444.73 173.649 445.37 173.649C445.994 173.649 446.546 173.785 447.026 174.057C447.506 174.329 447.874 174.705 448.13 175.185C448.394 175.657 448.526 176.193 448.526 176.793ZM447.398 176.565C447.398 176.149 447.306 175.793 447.122 175.497C446.938 175.193 446.686 174.965 446.366 174.813C446.054 174.653 445.706 174.573 445.322 174.573C444.77 174.573 444.298 174.749 443.906 175.101C443.522 175.453 443.302 175.941 443.246 176.565H447.398ZM451.059 174.825C451.251 174.449 451.523 174.157 451.875 173.949C452.235 173.741 452.671 173.637 453.183 173.637V174.765H452.895C451.671 174.765 451.059 175.429 451.059 176.757V180.333H449.967V173.757H451.059V174.825Z" fill="#1B1D2E"/>
<path d="M116 206.167L454 206.167" stroke="#1B1D2E" stroke-width="0.75" stroke-linecap="round" stroke-linejoin="round"/>
<path d="M123.44 250.272C124.069 250.389 124.587 250.704 124.992 251.216C125.397 251.728 125.6 252.315 125.6 252.976C125.6 253.573 125.451 254.101 125.152 254.56C124.864 255.008 124.443 255.36 123.888 255.616C123.333 255.872 122.677 256 121.92 256H117.104V244.832H121.712C122.469 244.832 123.12 244.955 123.664 245.2C124.219 245.445 124.635 245.787 124.912 246.224C125.2 246.661 125.344 247.157 125.344 247.712C125.344 248.363 125.168 248.907 124.816 249.344C124.475 249.781 124.016 250.091 123.44 250.272ZM119.344 249.44H121.392C121.925 249.44 122.336 249.323 122.624 249.088C122.912 248.843 123.056 248.496 123.056 248.048C123.056 247.6 122.912 247.253 122.624 247.008C122.336 246.763 121.925 246.64 121.392 246.64H119.344V249.44ZM121.6 254.176C122.144 254.176 122.565 254.048 122.864 253.792C123.173 253.536 123.328 253.173 123.328 252.704C123.328 252.224 123.168 251.851 122.848 251.584C122.528 251.307 122.096 251.168 121.552 251.168H119.344V254.176H121.6ZM126.809 251.536C126.809 250.64 126.985 249.845 127.337 249.152C127.7 248.459 128.185 247.925 128.793 247.552C129.412 247.179 130.1 246.992 130.857 246.992C131.519 246.992 132.095 247.125 132.585 247.392C133.087 247.659 133.487 247.995 133.785 248.4V247.136H136.041V256H133.785V254.704C133.497 255.12 133.097 255.467 132.585 255.744C132.084 256.011 131.503 256.144 130.841 256.144C130.095 256.144 129.412 255.952 128.793 255.568C128.185 255.184 127.7 254.645 127.337 253.952C126.985 253.248 126.809 252.443 126.809 251.536ZM133.785 251.568C133.785 251.024 133.679 250.56 133.465 250.176C133.252 249.781 132.964 249.483 132.601 249.28C132.239 249.067 131.849 248.96 131.433 248.96C131.017 248.96 130.633 249.061 130.281 249.264C129.929 249.467 129.641 249.765 129.417 250.16C129.204 250.544 129.097 251.003 129.097 251.536C129.097 252.069 129.204 252.539 129.417 252.944C129.641 253.339 129.929 253.643 130.281 253.856C130.644 254.069 131.028 254.176 131.433 254.176C131.849 254.176 132.239 254.075 132.601 253.872C132.964 253.659 133.252 253.36 133.465 252.976C133.679 252.581 133.785 252.112 133.785 251.568ZM141.621 256.144C140.896 256.144 140.245 256.016 139.669 255.76C139.093 255.493 138.634 255.136 138.293 254.688C137.962 254.24 137.781 253.744 137.749 253.2H140.005C140.048 253.541 140.213 253.824 140.501 254.048C140.8 254.272 141.168 254.384 141.605 254.384C142.032 254.384 142.362 254.299 142.597 254.128C142.842 253.957 142.965 253.739 142.965 253.472C142.965 253.184 142.816 252.971 142.517 252.832C142.229 252.683 141.765 252.523 141.125 252.352C140.464 252.192 139.92 252.027 139.493 251.856C139.077 251.685 138.714 251.424 138.405 251.072C138.106 250.72 137.957 250.245 137.957 249.648C137.957 249.157 138.096 248.709 138.373 248.304C138.661 247.899 139.066 247.579 139.589 247.344C140.122 247.109 140.746 246.992 141.461 246.992C142.517 246.992 143.36 247.259 143.989 247.792C144.618 248.315 144.965 249.024 145.029 249.92H142.885C142.853 249.568 142.704 249.291 142.437 249.088C142.181 248.875 141.834 248.768 141.397 248.768C140.992 248.768 140.677 248.843 140.453 248.992C140.24 249.141 140.133 249.349 140.133 249.616C140.133 249.915 140.282 250.144 140.581 250.304C140.88 250.453 141.344 250.608 141.973 250.768C142.613 250.928 143.141 251.093 143.557 251.264C143.973 251.435 144.33 251.701 144.629 252.064C144.938 252.416 145.098 252.885 145.109 253.472C145.109 253.984 144.965 254.443 144.677 254.848C144.4 255.253 143.994 255.573 143.461 255.808C142.938 256.032 142.325 256.144 141.621 256.144ZM155.188 251.376C155.188 251.696 155.166 251.984 155.124 252.24H148.644C148.697 252.88 148.921 253.381 149.316 253.744C149.71 254.107 150.196 254.288 150.772 254.288C151.604 254.288 152.196 253.931 152.548 253.216H154.964C154.708 254.069 154.217 254.773 153.492 255.328C152.766 255.872 151.876 256.144 150.82 256.144C149.966 256.144 149.198 255.957 148.516 255.584C147.844 255.2 147.316 254.661 146.932 253.968C146.558 253.275 146.372 252.475 146.372 251.568C146.372 250.651 146.558 249.845 146.932 249.152C147.305 248.459 147.828 247.925 148.5 247.552C149.172 247.179 149.945 246.992 150.82 246.992C151.662 246.992 152.414 247.173 153.076 247.536C153.748 247.899 154.265 248.416 154.628 249.088C155.001 249.749 155.188 250.512 155.188 251.376ZM152.868 250.736C152.857 250.16 152.649 249.701 152.244 249.36C151.838 249.008 151.342 248.832 150.756 248.832C150.201 248.832 149.732 249.003 149.348 249.344C148.974 249.675 148.745 250.139 148.66 250.736H152.868ZM157.815 256.112C157.409 256.112 157.073 255.989 156.807 255.744C156.551 255.488 156.423 255.173 156.423 254.8C156.423 254.427 156.551 254.117 156.807 253.872C157.073 253.616 157.409 253.488 157.815 253.488C158.209 253.488 158.535 253.616 158.791 253.872C159.047 254.117 159.175 254.427 159.175 254.8C159.175 255.173 159.047 255.488 158.791 255.744C158.535 255.989 158.209 256.112 157.815 256.112ZM157.815 249.488C157.409 249.488 157.073 249.365 156.807 249.12C156.551 248.864 156.423 248.549 156.423 248.176C156.423 247.803 156.551 247.493 156.807 247.248C157.073 246.992 157.409 246.864 157.815 246.864C158.209 246.864 158.535 246.992 158.791 247.248C159.047 247.493 159.175 247.803 159.175 248.176C159.175 248.549 159.047 248.864 158.791 249.12C158.535 249.365 158.209 249.488 157.815 249.488Z" fill="#1B1D2E"/>
<path d="M124.704 284.832V286.64H121.728V296H119.488V286.64H116.512V284.832H124.704ZM130.274 296.144C129.421 296.144 128.653 295.957 127.97 295.584C127.288 295.2 126.749 294.661 126.354 293.968C125.97 293.275 125.778 292.475 125.778 291.568C125.778 290.661 125.976 289.861 126.37 289.168C126.776 288.475 127.325 287.941 128.018 287.568C128.712 287.184 129.485 286.992 130.338 286.992C131.192 286.992 131.965 287.184 132.658 287.568C133.352 287.941 133.896 288.475 134.29 289.168C134.696 289.861 134.898 290.661 134.898 291.568C134.898 292.475 134.69 293.275 134.274 293.968C133.869 294.661 133.314 295.2 132.61 295.584C131.917 295.957 131.138 296.144 130.274 296.144ZM130.274 294.192C130.68 294.192 131.058 294.096 131.41 293.904C131.773 293.701 132.061 293.403 132.274 293.008C132.488 292.613 132.594 292.133 132.594 291.568C132.594 290.725 132.37 290.08 131.922 289.632C131.485 289.173 130.946 288.944 130.306 288.944C129.666 288.944 129.128 289.173 128.69 289.632C128.264 290.08 128.05 290.725 128.05 291.568C128.05 292.411 128.258 293.061 128.674 293.52C129.101 293.968 129.634 294.192 130.274 294.192ZM138.782 288.416C139.07 288.011 139.464 287.675 139.966 287.408C140.478 287.131 141.059 286.992 141.71 286.992C142.467 286.992 143.15 287.179 143.758 287.552C144.376 287.925 144.862 288.459 145.214 289.152C145.576 289.835 145.758 290.629 145.758 291.536C145.758 292.443 145.576 293.248 145.214 293.952C144.862 294.645 144.376 295.184 143.758 295.568C143.15 295.952 142.467 296.144 141.71 296.144C141.059 296.144 140.483 296.011 139.982 295.744C139.491 295.477 139.091 295.141 138.782 294.736V300.224H136.542V287.136H138.782V288.416ZM143.47 291.536C143.47 291.003 143.358 290.544 143.134 290.16C142.92 289.765 142.632 289.467 142.27 289.264C141.918 289.061 141.534 288.96 141.118 288.96C140.712 288.96 140.328 289.067 139.966 289.28C139.614 289.483 139.326 289.781 139.102 290.176C138.888 290.571 138.782 291.035 138.782 291.568C138.782 292.101 138.888 292.565 139.102 292.96C139.326 293.355 139.614 293.659 139.966 293.872C140.328 294.075 140.712 294.176 141.118 294.176C141.534 294.176 141.918 294.069 142.27 293.856C142.632 293.643 142.92 293.339 143.134 292.944C143.358 292.549 143.47 292.08 143.47 291.536ZM149.625 288.416C149.913 288.011 150.308 287.675 150.809 287.408C151.321 287.131 151.903 286.992 152.553 286.992C153.311 286.992 153.993 287.179 154.601 287.552C155.22 287.925 155.705 288.459 156.057 289.152C156.42 289.835 156.601 290.629 156.601 291.536C156.601 292.443 156.42 293.248 156.057 293.952C155.705 294.645 155.22 295.184 154.601 295.568C153.993 295.952 153.311 296.144 152.553 296.144C151.903 296.144 151.327 296.011 150.825 295.744C150.335 295.477 149.935 295.141 149.625 294.736V300.224H147.385V287.136H149.625V288.416ZM154.313 291.536C154.313 291.003 154.201 290.544 153.977 290.16C153.764 289.765 153.476 289.467 153.113 289.264C152.761 289.061 152.377 288.96 151.961 288.96C151.556 288.96 151.172 289.067 150.809 289.28C150.457 289.483 150.169 289.781 149.945 290.176C149.732 290.571 149.625 291.035 149.625 291.568C149.625 292.101 149.732 292.565 149.945 292.96C150.169 293.355 150.457 293.659 150.809 293.872C151.172 294.075 151.556 294.176 151.961 294.176C152.377 294.176 152.761 294.069 153.113 293.856C153.476 293.643 153.764 293.339 153.977 292.944C154.201 292.549 154.313 292.08 154.313 291.536ZM159.365 286.08C158.97 286.08 158.64 285.957 158.373 285.712C158.117 285.456 157.989 285.141 157.989 284.768C157.989 284.395 158.117 284.085 158.373 283.84C158.64 283.584 158.97 283.456 159.365 283.456C159.76 283.456 160.085 283.584 160.341 283.84C160.608 284.085 160.741 284.395 160.741 284.768C160.741 285.141 160.608 285.456 160.341 285.712C160.085 285.957 159.76 286.08 159.365 286.08ZM160.469 287.136V296H158.229V287.136H160.469ZM167.594 287.008C168.65 287.008 169.503 287.344 170.154 288.016C170.805 288.677 171.13 289.605 171.13 290.8V296H168.89V291.104C168.89 290.4 168.714 289.861 168.362 289.488C168.01 289.104 167.53 288.912 166.922 288.912C166.303 288.912 165.813 289.104 165.45 289.488C165.098 289.861 164.922 290.4 164.922 291.104V296H162.682V287.136H164.922V288.24C165.221 287.856 165.599 287.557 166.058 287.344C166.527 287.12 167.039 287.008 167.594 287.008ZM176.732 286.992C177.394 286.992 177.975 287.125 178.476 287.392C178.978 287.648 179.372 287.984 179.66 288.4V287.136H181.916V296.064C181.916 296.885 181.751 297.616 181.42 298.256C181.09 298.907 180.594 299.419 179.932 299.792C179.271 300.176 178.471 300.368 177.532 300.368C176.274 300.368 175.239 300.075 174.428 299.488C173.628 298.901 173.175 298.101 173.068 297.088H175.292C175.41 297.493 175.66 297.813 176.044 298.048C176.439 298.293 176.914 298.416 177.468 298.416C178.119 298.416 178.647 298.219 179.052 297.824C179.458 297.44 179.66 296.853 179.66 296.064V294.688C179.372 295.104 178.972 295.451 178.46 295.728C177.959 296.005 177.383 296.144 176.732 296.144C175.986 296.144 175.303 295.952 174.684 295.568C174.066 295.184 173.575 294.645 173.212 293.952C172.86 293.248 172.684 292.443 172.684 291.536C172.684 290.64 172.86 289.845 173.212 289.152C173.575 288.459 174.06 287.925 174.668 287.552C175.287 287.179 175.975 286.992 176.732 286.992ZM179.66 291.568C179.66 291.024 179.554 290.56 179.34 290.176C179.127 289.781 178.839 289.483 178.476 289.28C178.114 289.067 177.724 288.96 177.308 288.96C176.892 288.96 176.508 289.061 176.156 289.264C175.804 289.467 175.516 289.765 175.292 290.16C175.079 290.544 174.972 291.003 174.972 291.536C174.972 292.069 175.079 292.539 175.292 292.944C175.516 293.339 175.804 293.643 176.156 293.856C176.519 294.069 176.903 294.176 177.308 294.176C177.724 294.176 178.114 294.075 178.476 293.872C178.839 293.659 179.127 293.36 179.34 292.976C179.554 292.581 179.66 292.112 179.66 291.568ZM187.496 296.144C186.771 296.144 186.12 296.016 185.544 295.76C184.968 295.493 184.509 295.136 184.168 294.688C183.837 294.24 183.656 293.744 183.624 293.2H185.88C185.923 293.541 186.088 293.824 186.376 294.048C186.675 294.272 187.043 294.384 187.48 294.384C187.907 294.384 188.237 294.299 188.472 294.128C188.717 293.957 188.84 293.739 188.84 293.472C188.84 293.184 188.691 292.971 188.392 292.832C188.104 292.683 187.64 292.523 187 292.352C186.339 292.192 185.795 292.027 185.368 291.856C184.952 291.685 184.589 291.424 184.28 291.072C183.981 290.72 183.832 290.245 183.832 289.648C183.832 289.157 183.971 288.709 184.248 288.304C184.536 287.899 184.941 287.579 185.464 287.344C185.997 287.109 186.621 286.992 187.336 286.992C188.392 286.992 189.235 287.259 189.864 287.792C190.493 288.315 190.84 289.024 190.904 289.92H188.76C188.728 289.568 188.579 289.291 188.312 289.088C188.056 288.875 187.709 288.768 187.272 288.768C186.867 288.768 186.552 288.843 186.328 288.992C186.115 289.141 186.008 289.349 186.008 289.616C186.008 289.915 186.157 290.144 186.456 290.304C186.755 290.453 187.219 290.608 187.848 290.768C188.488 290.928 189.016 291.093 189.432 291.264C189.848 291.435 190.205 291.701 190.504 292.064C190.813 292.416 190.973 292.885 190.984 293.472C190.984 293.984 190.84 294.443 190.552 294.848C190.275 295.253 189.869 295.573 189.336 295.808C188.813 296.032 188.2 296.144 187.496 296.144ZM193.815 296.112C193.409 296.112 193.073 295.989 192.807 295.744C192.551 295.488 192.423 295.173 192.423 294.8C192.423 294.427 192.551 294.117 192.807 293.872C193.073 293.616 193.409 293.488 193.815 293.488C194.209 293.488 194.535 293.616 194.791 293.872C195.047 294.117 195.175 294.427 195.175 294.8C195.175 295.173 195.047 295.488 194.791 295.744C194.535 295.989 194.209 296.112 193.815 296.112ZM193.815 289.488C193.409 289.488 193.073 289.365 192.807 289.12C192.551 288.864 192.423 288.549 192.423 288.176C192.423 287.803 192.551 287.493 192.807 287.248C193.073 286.992 193.409 286.864 193.815 286.864C194.209 286.864 194.535 286.992 194.791 287.248C195.047 287.493 195.175 287.803 195.175 288.176C195.175 288.549 195.047 288.864 194.791 289.12C194.535 289.365 194.209 289.488 193.815 289.488Z" fill="#1B1D2E"/>
<path d="M116 334.833L454 334.833" stroke="#1B1D2E" stroke-width="0.75" stroke-linecap="round" stroke-linejoin="round"/>
<path d="M122.2 388.807C121.227 388.807 120.347 388.64 119.56 388.307C118.787 387.973 118.173 387.493 117.72 386.867C117.267 386.24 117.033 385.5 117.02 384.647H120.02C120.06 385.22 120.26 385.673 120.62 386.007C120.993 386.34 121.5 386.507 122.14 386.507C122.793 386.507 123.307 386.353 123.68 386.047C124.053 385.727 124.24 385.313 124.24 384.807C124.24 384.393 124.113 384.053 123.86 383.787C123.607 383.52 123.287 383.313 122.9 383.167C122.527 383.007 122.007 382.833 121.34 382.647C120.433 382.38 119.693 382.12 119.12 381.867C118.56 381.6 118.073 381.207 117.66 380.687C117.26 380.153 117.06 379.447 117.06 378.567C117.06 377.74 117.267 377.02 117.68 376.407C118.093 375.793 118.673 375.327 119.42 375.007C120.167 374.673 121.02 374.507 121.98 374.507C123.42 374.507 124.587 374.86 125.48 375.567C126.387 376.26 126.887 377.233 126.98 378.487H123.9C123.873 378.007 123.667 377.613 123.28 377.307C122.907 376.987 122.407 376.827 121.78 376.827C121.233 376.827 120.793 376.967 120.46 377.247C120.14 377.527 119.98 377.933 119.98 378.467C119.98 378.84 120.1 379.153 120.34 379.407C120.593 379.647 120.9 379.847 121.26 380.007C121.633 380.153 122.153 380.327 122.82 380.527C123.727 380.793 124.467 381.06 125.04 381.327C125.613 381.593 126.107 381.993 126.52 382.527C126.933 383.06 127.14 383.76 127.14 384.627C127.14 385.373 126.947 386.067 126.56 386.707C126.173 387.347 125.607 387.86 124.86 388.247C124.113 388.62 123.227 388.807 122.2 388.807ZM140.028 377.587V388.667H137.208V387.267C136.848 387.747 136.374 388.127 135.788 388.407C135.214 388.673 134.588 388.807 133.908 388.807C133.041 388.807 132.274 388.627 131.608 388.267C130.941 387.893 130.414 387.353 130.028 386.647C129.654 385.927 129.468 385.073 129.468 384.087V377.587H132.268V383.687C132.268 384.567 132.488 385.247 132.928 385.727C133.368 386.193 133.968 386.427 134.728 386.427C135.501 386.427 136.108 386.193 136.548 385.727C136.988 385.247 137.208 384.567 137.208 383.687V377.587H140.028ZM145.59 379.207C145.95 378.673 146.443 378.24 147.07 377.907C147.71 377.573 148.437 377.407 149.25 377.407C150.197 377.407 151.05 377.64 151.81 378.107C152.583 378.573 153.19 379.24 153.63 380.107C154.083 380.96 154.31 381.953 154.31 383.087C154.31 384.22 154.083 385.227 153.63 386.107C153.19 386.973 152.583 387.647 151.81 388.127C151.05 388.607 150.197 388.847 149.25 388.847C148.423 388.847 147.697 388.687 147.07 388.367C146.457 388.033 145.963 387.607 145.59 387.087V388.667H142.79V373.867H145.59V379.207ZM151.45 383.087C151.45 382.42 151.31 381.847 151.03 381.367C150.763 380.873 150.403 380.5 149.95 380.247C149.51 379.993 149.03 379.867 148.51 379.867C148.003 379.867 147.523 380 147.07 380.267C146.63 380.52 146.27 380.893 145.99 381.387C145.723 381.88 145.59 382.46 145.59 383.127C145.59 383.793 145.723 384.373 145.99 384.867C146.27 385.36 146.63 385.74 147.07 386.007C147.523 386.26 148.003 386.387 148.51 386.387C149.03 386.387 149.51 386.253 149.95 385.987C150.403 385.72 150.763 385.34 151.03 384.847C151.31 384.353 151.45 383.767 151.45 383.087ZM159.605 379.887V385.247C159.605 385.62 159.692 385.893 159.865 386.067C160.052 386.227 160.358 386.307 160.785 386.307H162.085V388.667H160.325C157.965 388.667 156.785 387.52 156.785 385.227V379.887H155.465V377.587H156.785V374.847H159.605V377.587H162.085V379.887H159.605ZM169.019 388.847C167.952 388.847 166.992 388.613 166.139 388.147C165.285 387.667 164.612 386.993 164.119 386.127C163.639 385.26 163.399 384.26 163.399 383.127C163.399 381.993 163.645 380.993 164.139 380.127C164.645 379.26 165.332 378.593 166.199 378.127C167.065 377.647 168.032 377.407 169.099 377.407C170.165 377.407 171.132 377.647 171.999 378.127C172.865 378.593 173.545 379.26 174.039 380.127C174.545 380.993 174.799 381.993 174.799 383.127C174.799 384.26 174.539 385.26 174.019 386.127C173.512 386.993 172.819 387.667 171.939 388.147C171.072 388.613 170.099 388.847 169.019 388.847ZM169.019 386.407C169.525 386.407 169.999 386.287 170.439 386.047C170.892 385.793 171.252 385.42 171.519 384.927C171.785 384.433 171.919 383.833 171.919 383.127C171.919 382.073 171.639 381.267 171.079 380.707C170.532 380.133 169.859 379.847 169.059 379.847C168.259 379.847 167.585 380.133 167.039 380.707C166.505 381.267 166.239 382.073 166.239 383.127C166.239 384.18 166.499 384.993 167.019 385.567C167.552 386.127 168.219 386.407 169.019 386.407ZM180.113 379.887V385.247C180.113 385.62 180.199 385.893 180.373 386.067C180.559 386.227 180.866 386.307 181.293 386.307H182.593V388.667H180.833C178.473 388.667 177.293 387.52 177.293 385.227V379.887H175.973V377.587H177.293V374.847H180.113V377.587H182.593V379.887H180.113ZM183.887 383.087C183.887 381.967 184.107 380.973 184.547 380.107C185 379.24 185.607 378.573 186.367 378.107C187.14 377.64 188 377.407 188.947 377.407C189.773 377.407 190.493 377.573 191.107 377.907C191.733 378.24 192.233 378.66 192.607 379.167V377.587H195.427V388.667H192.607V387.047C192.247 387.567 191.747 388 191.107 388.347C190.48 388.68 189.753 388.847 188.927 388.847C187.993 388.847 187.14 388.607 186.367 388.127C185.607 387.647 185 386.973 184.547 386.107C184.107 385.227 183.887 384.22 183.887 383.087ZM192.607 383.127C192.607 382.447 192.473 381.867 192.207 381.387C191.94 380.893 191.58 380.52 191.127 380.267C190.673 380 190.187 379.867 189.667 379.867C189.147 379.867 188.667 379.993 188.227 380.247C187.787 380.5 187.427 380.873 187.147 381.367C186.88 381.847 186.747 382.42 186.747 383.087C186.747 383.753 186.88 384.34 187.147 384.847C187.427 385.34 187.787 385.72 188.227 385.987C188.68 386.253 189.16 386.387 189.667 386.387C190.187 386.387 190.673 386.26 191.127 386.007C191.58 385.74 191.94 385.367 192.207 384.887C192.473 384.393 192.607 383.807 192.607 383.127ZM200.961 373.867V388.667H198.161V373.867H200.961Z" fill="#1B1D2E"/>
<defs>
<filter id="filter0_d_1695_5441" x="0" y="0" width="577.5" height="879" filterUnits="userSpaceOnUse" color-interpolation-filters="sRGB">
<feFlood flood-opacity="0" result="BackgroundImageFix"/>
<feColorMatrix in="SourceAlpha" type="matrix" values="0 0 0 0 0 0 0 0 0 0 0 0 0 0 0 0 0 0 127 0" result="hardAlpha"/>
<feOffset dx="4" dy="4"/>
<feGaussianBlur stdDeviation="25"/>
<feComposite in2="hardAlpha" operator="out"/>
<feColorMatrix type="matrix" values="0 0 0 0 0 0 0 0 0 0 0 0 0 0 0 0 0 0 0.16 0"/>
<feBlend mode="normal" in2="BackgroundImageFix" result="effect1_dropShadow_1695_5441"/>
<feBlend mode="normal" in="SourceGraphic" in2="effect1_dropShadow_1695_5441" result="shape"/>
</filter>
</defs>
</svg>
