<svg xmlns="http://www.w3.org/2000/svg" height="40" viewBox="0 96 960 960" width="40"><path d="M380.001 936V809.333H80v-66.666h300.001q27.499 0 47.083 19.583 19.583 19.583 19.583 47.083V936h-66.666Zm133.332 0V809.333q0-27.5 19.583-47.083 19.584-19.583 47.083-19.583H880v66.666H579.999V936h-66.666Zm-280-246.667q-46.666 0-80-33.333Q120 622.667 120 576V402.666h720V576q0 46.667-33.056 80-33.055 33.333-80.277 33.333H233.333ZM120 362.666V296h246.667v-46.667q0-14.166 9.583-23.75Q385.833 216 400 216h160q14.167 0 23.75 9.583 9.583 9.584 9.583 23.75V296H840v66.666H120Z"/></svg>