<svg xmlns="http://www.w3.org/2000/svg" height="40" viewBox="0 96 960 960" width="40"><path d="M558.667 938Q507 938 471.5 902.167q-35.5-35.834-35.5-91.5 0-43.334 20.001-78.667 20-35.334 52.167-61.5 32.166-26.167 72-42.333Q620.001 612 659.667 607q-3-51.333-22.667-73.5-19.666-22.167-53.667-22.167-36 0-70.333 24t-88.334 95q-67.999 87-105.833 115.667-37.833 28.667-82.5 28.667-45.666 0-81-31.834Q120 711 120 646.667q0-39 22.833-91.333Q165.667 503 221 417.667q23.333-34 34.167-56.667Q266 338.333 266 323.333q0-9.667-4.833-15.167-4.834-5.5-14.5-5.5-7.667 0-17.334 4.5t-21 14.167q-13 11.333-28.5 11.5-15.5.166-26.833-11.833-12.333-12.334-12.333-29.167 0-16.833 12-27.833Q176 242.667 199.5 232.333 223 222 246.667 222q43.666 0 71.833 29.5 28.166 29.5 28.166 73.166 0 33.001-17.333 67.834-17.334 34.833-55.667 91.5-42.667 62.667-57.833 97.667-15.167 35-15.167 66 0 27 12.834 36.667Q226.333 694 241.667 694q20 0 43.833-22.166 23.834-22.167 80.167-92.834Q432 495.334 482.334 463q50.333-32.333 107-32.333 69.666 0 107.833 49.333 38.166 49.333 43.166 123.334H800q16.333 0 28.167 11.833Q840 627 840 643.333q0 17-11.833 28.834Q816.333 684 800 684h-59.667Q731.667 816.668 678 877.334T558.667 938Zm2.666-80.666q33.667 0 63.834-41.5t35.5-128.168q-51.333 8-97.667 42.834-46.334 34.833-46.334 83.5 0 20 11.667 31.667 11.667 11.667 33 11.667Z"/></svg>