<svg xmlns="http://www.w3.org/2000/svg" height="40" viewBox="0 96 960 960" width="40"><path d="M273.333 976Q259 976 249.5 966.5q-9.5-9.5-9.5-23.833V804q-57-52-88.5-121.5T120 536q0-150 105-255t255-105q125 0 221.5 73.5T827 441l54 213.667q4.333 15.666-5.667 28.5-10 12.833-26.666 12.833H760v133.334Q760 857 740.5 876.5 721 896 693.334 896H600v46.667q0 14.333-9.5 23.833-9.5 9.5-23.833 9.5H273.333ZM480 736q17 0 28.5-11.5T520 696q0-17-11.5-28.5T480 656q-17 0-28.5 11.5T440 696q0 17 11.5 28.5T480 736Zm1-128q11 0 20.5-7.5T514 580q3-12 9.5-23.5T544 530q32-35 42-53t10-41q0-42-32.5-71T483 336q-31.333 0-58.833 14.5t-44.5 40.167q-7.334 10.666-2.834 23Q381.333 426 393 431q11 5 21.5 1.5T433 418q10-12 23-18.5t27-6.5q22 0 36.5 12t14.5 31q0 16-8.5 30.5T492 507q-19 20-27.5 35.5T453 578q-2 12 6.5 21t21.5 9Z"/></svg>