<svg xmlns="http://www.w3.org/2000/svg" height="40" viewBox="0 96 960 960" width="40"><path d="M480 976q-33.667 0-57.167-23.5t-23.5-57.167h161.334q0 33.667-23.5 57.167T480 976ZM352 840.666q-14.333 0-23.833-9.5-9.5-9.5-9.5-23.833 0-14.333 9.5-23.833 9.5-9.5 23.833-9.5h256q14.333 0 23.833 9.5 9.5 9.5 9.5 23.833 0 14.333-9.5 23.833-9.5 9.5-23.833 9.5H352ZM325.333 720q-67-42.334-106.166-108.334-39.167-66-39.167-147 0-123 88.5-211.5t211.5-88.5q123 0 211.5 88.5t88.5 211.5q0 81-38.833 147-38.834 66-106.5 108.334H325.333Z"/></svg>