<svg xmlns="http://www.w3.org/2000/svg" height="40" viewBox="0 96 960 960" width="40"><path d="M687.334 976q-79.957 0-136.312-56.355-56.355-56.355-56.355-136.311 0-79.957 56.355-136.312 56.355-56.355 136.312-56.355 79.956 0 136.311 56.355Q880 703.377 880 783.334q0 79.956-56.355 136.311Q767.29 976 687.334 976Zm46.999-107.666q6 6 14 6t14-6q6-6.022 6-14.05t-6-14.049l-61-61.215v-92.325q0-8.028-5.8-13.695-5.8-5.666-13.533-5.666-8 0-14 6t-6 14v93q0 6.377 2.333 12.355 2.334 5.978 7 11.311l63 64.334Zm-547.667 58.332q-27.5 0-47.083-19.583T120 860V285.333q0-27.5 18.167-47.083 18.166-19.583 36.499-19.583H365q8.333-35 37.333-57.5t65.667-22.5q37.333 0 66.166 22.5t37.167 57.5h190q27.5 0 47.083 19.583Q828 257.833 828 285.333v280.001q-16-10.333-32.344-17.653-16.344-7.32-34.323-13.014V285.333H664v60.001q0 27.499-19.584 47.083Q624.833 412 597.333 412H350.666q-27.499 0-47.083-19.583Q284 372.833 284 345.334v-60.001h-97.334V860h252.668q5.667 17.333 13.333 33.667 7.667 16.333 18.667 32.999H186.666Zm293.334-644q17 0 28.5-11.5t11.5-28.5q0-17-11.5-28.5t-28.5-11.5q-17 0-28.5 11.5t-11.5 28.5q0 17 11.5 28.5t28.5 11.5Z"/></svg>