<svg xmlns="http://www.w3.org/2000/svg" height="40" width="40"><path d="M20 34.708q-.583 0-.979-.396-.396-.395-.396-.979V21.708h-.583q-2.667 0-5.042-1.02-2.375-1.021-4.25-2.896-1.833-1.875-2.792-4.334Q5 11 5 8.333V6.375q0-.583.396-.979T6.375 5h1.917q2.583 0 4.979 1.021t4.271 2.896q1.375 1.375 2.25 3.062.875 1.688 1.291 3.563.292-.417.625-.813.334-.396.709-.812 1.875-1.875 4.271-2.896Q29.083 10 31.708 10h1.917q.583 0 .979.396t.396.979v1.958q0 2.667-1 5.125-1 2.459-2.875 4.334-1.875 1.875-4.25 2.875t-5 1h-.5v6.666q0 .584-.396.979-.396.396-.979.396Z"/></svg>