<svg xmlns="http://www.w3.org/2000/svg" height="40" viewBox="0 96 960 960" width="40"><path d="M760 609.333q-14.333 0-23.833-9.5-9.5-9.5-9.5-23.833 0-14.333 9.5-23.833 9.5-9.5 23.833-9.5h86.667q14.333 0 23.833 9.5 9.5 9.5 9.5 23.833 0 14.333-9.5 23.833-9.5 9.5-23.833 9.5H760ZM749.334 876l-70-52Q668 815.333 666 802t6.667-24.666q8.667-11.334 22-13.334t24.666 6.667l70 52q11.334 8.667 13.334 22T796 869.333q-8.667 11.334-22 13.334T749.334 876Zm-28.001-495.334q-11.333 8.667-24.666 6.667t-22-13.333Q666 362.666 668 349.333q2-13.333 13.334-22l68-51.333q11.333-8.667 24.666-6.667t22 13.334q8.667 11.333 6.667 24.666t-13.334 22l-68 51.333ZM206.667 856V696h-60.001Q119 696 99.5 676.5 80 657 80 629.334V522.666Q80 495 99.5 475.5 119 456 146.666 456H320l149.667-90q16.667-10 33.5 0T520 395v362q0 19-16.833 29t-33.5 0L320 696h-46.667v160h-66.666ZM560 710V442q27 24 43.5 58.5T620 576q0 41-16.5 75.5T560 710Z"/></svg>