<svg xmlns="http://www.w3.org/2000/svg" height="40" viewBox="0 96 960 960" width="40"><path d="M481 729.333q-23.333 0-37.833-16.333t-11.834-39.333q4.334-38 21.001-67 16.666-29 51.666-60 41.667-37.334 63.833-67.834Q590 448.333 590 412.218q0-43.552-29.263-72.552-29.263-29-81.404-29-35.333 0-59.104 14.458-23.772 14.457-38.563 35.876-11.999 17.333-30.166 23.666-18.167 6.334-35.357-.778-20.81-8.888-26.643-30.555-5.833-21.667 5.5-39.667 28.334-42.333 74.943-69.999Q416.553 216 479.333 216q101.789 0 156.561 56.62 54.772 56.621 54.772 135.986 0 48.394-20.833 86.227-20.833 37.834-66.166 81.5-34.667 33.334-48.667 54-14 20.667-18.333 47.334-3.334 22.333-18.942 37-15.608 14.666-36.725 14.666ZM479.274 976Q449 976 427.5 954.441T406 902.608q0-30.274 21.559-51.774t51.833-21.5q30.275 0 51.775 21.559 21.499 21.559 21.499 51.833 0 30.274-21.559 51.774-21.558 21.5-51.833 21.5Z"/></svg>