<svg xmlns="http://www.w3.org/2000/svg" height="40" viewBox="0 96 960 960" width="40"><path d="M40 896V736q0-30.667 21.5-52t51.833-21.333H251q18 0 34.333 9 16.334 9 27.334 24.666 29 41 73.166 63.667Q430 782.667 480 782.667q50.333 0 94.5-22.667t73.5-63.667q11.667-15.666 27.5-24.666t33.5-9h137.667q30.666 0 52 21.333Q920 705.333 920 736v160H653.334V786.333Q617.667 816.666 573.167 833q-44.5 16.333-93.167 16.333-48.333 0-92.667-16.5-44.333-16.5-80.667-46.834V896H40Zm440-166.667q-36 0-69-16.833T357 666q-16.333-23.667-39.833-37.833-23.5-14.167-50.833-17.5Q293.001 578.333 358 560.5q65-17.833 122-17.833T602.333 560.5q65.333 17.833 92 50.167-27 3.333-50.667 17.5Q620 642.333 603.667 666 583 696 550 712.667q-33 16.666-70 16.666ZM160 602.666q-46.667 0-80-33.333t-33.333-80q0-47.666 33.333-80.5Q113.333 376 160 376q47.667 0 80.5 32.833 32.833 32.834 32.833 80.5 0 46.667-32.833 80T160 602.666Zm640 0q-46.667 0-80-33.333t-33.333-80q0-47.666 33.333-80.5Q753.333 376 800 376q47.667 0 80.5 32.833 32.833 32.834 32.833 80.5 0 46.667-32.833 80T800 602.666Zm-320-120q-46.667 0-80-33.333t-33.333-80q0-47.666 33.333-80.5Q433.333 256 480 256q47.667 0 80.5 32.833 32.833 32.834 32.833 80.5 0 46.667-32.833 80T480 482.666Z"/></svg>