<svg xmlns="http://www.w3.org/2000/svg" height="40" viewBox="0 96 960 960" width="40"><path d="M480 734.935q16.167 0 27.022-10.855 10.855-10.855 10.855-27.022V561.029l42.551 42.551q11.021 11.021 26.521 11.021t26.522-11.021q11.022-11.022 11.022-26.522 0-15.5-11.022-26.522L506.522 443.587q-5.876-6.087-12.467-8.634-6.591-2.547-14.055-2.547-7.464 0-14.055 2.547-6.591 2.547-12.467 8.634L346.529 550.536q-11.022 11.022-11.022 26.522 0 15.5 11.022 26.522 11.022 11.021 26.522 11.021 15.5 0 26.521-11.021l42.551-42.551v136.029q0 16.167 10.855 27.022 10.855 10.855 27.022 10.855Zm0 247.761q-85.768 0-160.041-31.372-74.272-31.371-129.092-86.191-54.82-54.82-86.191-129.092Q73.304 661.768 73.304 576q0-85.261 31.372-159.454 31.371-74.192 86.191-129.092 54.82-54.9 129.092-86.604Q394.232 169.145 480 169.145q85.261 0 159.454 31.705 74.192 31.704 129.092 86.604 54.9 54.9 86.604 129.092Q886.855 490.739 886.855 576q0 85.768-31.705 160.041-31.704 74.272-86.604 129.092-54.9 54.82-129.092 86.191Q565.261 982.696 480 982.696Z"/></svg>