<svg width="48" height="48" viewBox="0 0 48 48" fill="none" xmlns="http://www.w3.org/2000/svg">
<path d="M25.7313 39.5414C25.4529 39.263 25.3137 38.9359 25.3137 38.5601C25.3137 38.1849 25.4529 37.8582 25.7313 37.5798L30.6958 32.6153L15.3426 17.2622L10.3781 22.2267C10.0998 22.505 9.77299 22.6372 9.39784 22.6232C9.02201 22.6092 8.69491 22.463 8.41655 22.1846C8.13885 21.9069 8 21.5731 8 21.1833C8 20.7941 8.13885 20.4604 8.41655 20.182L9.79335 18.8472L8.41655 17.4704C8.13885 17.1921 8 16.8653 8 16.4901C8 16.1143 8.13885 15.7876 8.41655 15.5099L11.0039 12.9645L10.0026 11.9632C9.72426 11.6848 9.59209 11.3511 9.60611 10.9619C9.62013 10.5727 9.76598 10.2389 10.0437 9.96057C10.322 9.68221 10.6558 9.54303 11.045 9.54303C11.4348 9.54303 11.7686 9.68221 12.0463 9.96057L13.0066 10.9619L15.5099 8.41655C15.7876 8.13885 16.1143 8 16.4901 8C16.8653 8 17.1921 8.13885 17.4704 8.41655L18.8893 9.83541L20.2661 8.41655C20.5438 8.16622 20.8706 8.04105 21.2464 8.04105C21.6215 8.04105 21.9483 8.16622 22.2267 8.41655C22.505 8.69491 22.6442 9.02201 22.6442 9.39784C22.6442 9.77299 22.505 10.0998 22.2267 10.3781L17.2622 15.3426L32.6153 30.6958L37.5798 25.7313C37.8582 25.4529 38.192 25.3137 38.5811 25.3137C38.971 25.3137 39.3048 25.4529 39.5825 25.7313C39.8608 26.0096 40 26.3434 40 26.7326C40 27.1218 39.8608 27.4555 39.5825 27.7339L38.1646 29.1107L39.5414 30.4875C39.8191 30.7659 39.9579 31.0926 39.9579 31.4678C39.9579 31.8436 39.8191 32.1704 39.5414 32.4481L36.9129 35.0355L37.9143 36.0368C38.192 36.3145 38.3308 36.6342 38.3308 36.9961C38.3308 37.3579 38.192 37.6776 37.9143 37.9553C37.6359 38.2337 37.3091 38.3729 36.934 38.3729C36.5581 38.3729 36.2311 38.2337 35.9527 37.9553L34.9514 36.9961L32.4481 39.5414C32.1704 39.8191 31.8436 39.9579 31.4678 39.9579C31.0926 39.9579 30.7659 39.8191 30.4875 39.5414L29.0687 38.1225L27.6918 39.5414C27.4141 39.7917 27.0874 39.9169 26.7116 39.9169C26.3364 39.9169 26.0096 39.7917 25.7313 39.5414Z" fill="white"/>
</svg>
