<svg width="48" height="48" viewBox="0 0 48 48" fill="none" xmlns="http://www.w3.org/2000/svg">
<path d="M27.2778 39.0833C25.8426 39.0833 24.6319 38.5857 23.6458 37.5903C22.6597 36.5949 22.1667 35.3241 22.1667 33.7778C22.1667 32.5741 22.4445 31.4815 23 30.5C23.5556 29.5185 24.2801 28.6643 25.1737 27.9375C26.0672 27.2106 27.0672 26.6227 28.1737 26.1736C29.2801 25.7245 30.3843 25.4306 31.4861 25.2917C31.4028 23.8658 31.088 22.8449 30.5417 22.2292C29.9954 21.6134 29.25 21.3055 28.3055 21.3055C27.3055 21.3055 26.3287 21.6389 25.375 22.3055C24.4213 22.9722 23.1944 24.2917 21.6944 26.2639C19.8056 28.6805 18.3357 30.287 17.2847 31.0833C16.2338 31.8796 15.088 32.2778 13.8472 32.2778C12.5787 32.2778 11.4537 31.8357 10.4722 30.9514C9.49074 30.0671 9 28.7315 9 26.9445C9 25.8611 9.31712 24.5926 9.95137 23.1389C10.5857 21.6852 11.6713 19.7732 13.2083 17.4028C13.8565 16.4583 14.331 15.6713 14.632 15.0417C14.9329 14.412 15.0833 13.8889 15.0833 13.4722C15.0833 13.2037 15.0162 12.993 14.882 12.8402C14.7477 12.6875 14.5463 12.6111 14.2778 12.6111C14.0648 12.6111 13.8241 12.6736 13.5555 12.7986C13.287 12.9236 12.9953 13.1203 12.6805 13.3889C12.3194 13.7037 11.9236 13.8634 11.493 13.868C11.0625 13.8727 10.6898 13.7083 10.375 13.375C10.0324 13.0324 9.86113 12.6273 9.86113 12.1597C9.86113 11.6921 10.0278 11.3056 10.3611 11C11.0093 10.4074 11.6597 9.9676 12.3125 9.68054C12.9653 9.39351 13.6204 9.25 14.2778 9.25C15.4907 9.25 16.4884 9.65972 17.2708 10.4792C18.0532 11.2986 18.4444 12.3148 18.4444 13.5277C18.4444 14.4444 18.2037 15.3866 17.7222 16.3542C17.2407 17.3218 16.4676 18.5926 15.4027 20.1667C14.2176 21.9074 13.4143 23.2639 12.993 24.2361C12.5717 25.2083 12.3611 26.125 12.3611 26.9861C12.3611 27.7361 12.5393 28.2454 12.8958 28.5139C13.2523 28.7824 13.6435 28.9167 14.0695 28.9167C14.625 28.9167 15.2338 28.6088 15.8958 27.9931C16.5579 27.3773 17.6713 26.088 19.2361 24.125C21.0787 21.8009 22.6991 20.1898 24.0973 19.2917C25.4954 18.3935 26.9815 17.9445 28.5556 17.9445C30.4907 17.9445 31.9884 18.6296 33.0486 20C34.1088 21.3704 34.7083 23.0833 34.8472 25.1389H37.3333C37.787 25.1389 38.1782 25.3033 38.507 25.632C38.8357 25.9607 39 26.3518 39 26.8055C39 27.2778 38.8357 27.6782 38.507 28.007C38.1782 28.3357 37.787 28.5 37.3333 28.5H34.8472C34.6065 32.1852 33.7408 34.8704 32.25 36.5556C30.7593 38.2407 29.1018 39.0833 27.2778 39.0833ZM27.3889 35.7222C28.3241 35.7222 29.2107 35.1459 30.0486 33.9931C30.8866 32.8403 31.3797 31.0602 31.5278 28.6528C30.1019 28.875 28.7454 29.4699 27.4583 30.4375C26.1713 31.4051 25.5278 32.5648 25.5278 33.9167C25.5278 34.4722 25.6898 34.912 26.0139 35.2361C26.338 35.5602 26.7963 35.7222 27.3889 35.7222Z" fill="white"/>
</svg>
