<svg width="48" height="48" viewBox="0 0 48 48" fill="none" xmlns="http://www.w3.org/2000/svg">
<path d="M11.0551 39.1726C9.75619 39.1726 8.83972 38.581 8.30563 37.3979C7.77154 36.214 7.93745 35.1171 8.80335 34.1071L19.1506 22.1576V10.9011H17.0724C16.6685 10.9011 16.3295 10.7567 16.0551 10.4678C15.7808 10.179 15.6437 9.8326 15.6437 9.42874C15.6437 9.02489 15.7808 8.6858 16.0551 8.41148C16.3295 8.13716 16.6685 8 17.0724 8H30.9276C31.3315 8 31.6705 8.13716 31.9449 8.41148C32.2192 8.6858 32.3563 9.02489 32.3563 9.42874C32.3563 9.8617 32.2192 10.2153 31.9449 10.4897C31.6705 10.764 31.3315 10.9011 30.9276 10.9011H28.8494V22.1576L39.1966 34.1071C40.0626 35.1171 40.2285 36.214 39.6944 37.3979C39.1603 38.581 38.2438 39.1726 36.9449 39.1726H11.0551Z" fill="white"/>
</svg>
