<svg width="48" height="48" viewBox="0 0 48 48" fill="none" xmlns="http://www.w3.org/2000/svg">
<path d="M25.5936 8.59375V11.25H27.6867C28.3327 11.25 28.9681 11.42 29.5291 11.7409L32.2703 13.3049C32.3511 13.3516 32.4403 13.375 32.5338 13.375H37.2811C37.7037 13.375 38.1091 13.5429 38.408 13.8418C38.7069 14.1407 38.8748 14.5461 38.8748 14.9688C38.8748 15.3914 38.7069 15.7968 38.408 16.0957C38.1091 16.3946 37.7037 16.5625 37.2811 16.5625H36.3737L40.8596 26.533C40.9921 26.828 41.0318 27.1563 40.9734 27.4744C40.9149 27.7924 40.7611 28.0852 40.5323 28.3137L39.4061 27.1875L40.5302 28.3159L40.528 28.3201L40.5238 28.3244L40.5111 28.3371L40.4983 28.3477L40.4771 28.369L40.3814 28.454C39.9352 28.828 39.4443 29.1489 38.9237 29.4102C37.9313 29.9075 36.4948 30.375 34.6248 30.375C33.1363 30.3926 31.6642 30.0622 30.3259 29.4102C29.8046 29.149 29.3154 28.8281 28.8682 28.454L28.7726 28.369L28.7386 28.3371L28.7258 28.3244L28.7173 28.3159V28.3137C28.4885 28.0852 28.3347 27.7924 28.2763 27.4744C28.2178 27.1563 28.2575 26.828 28.3901 26.533L32.8781 16.5625H32.5338C31.8857 16.5625 31.2503 16.3946 30.6893 16.0716L27.9481 14.5076C27.868 14.4613 27.7771 14.4371 27.6846 14.4375H25.5936V34.625H30.9061C31.3287 34.625 31.7341 34.7929 32.033 35.0918C32.3319 35.3907 32.4998 35.7961 32.4998 36.2188C32.4998 36.6414 32.3319 37.0468 32.033 37.3457C31.7341 37.6446 31.3287 37.8125 30.9061 37.8125H17.0936C16.6709 37.8125 16.2655 37.6446 15.9666 37.3457C15.6677 37.0468 15.4998 36.6414 15.4998 36.2188C15.4998 35.7961 15.6677 35.3907 15.9666 35.0918C16.2655 34.7929 16.6709 34.625 17.0936 34.625H22.4061V14.4375H20.3151C20.2225 14.4371 20.1316 14.4613 20.0516 14.5076L17.3124 16.0737C16.7493 16.3925 16.1139 16.5625 15.4658 16.5625H15.1216L19.6096 26.533C19.7421 26.828 19.7818 27.1563 19.7234 27.4744C19.6649 27.7924 19.5111 28.0852 19.2823 28.3137L18.1561 27.1875L19.2802 28.3159L19.2781 28.3201L19.2738 28.3244L19.2611 28.3371L19.2271 28.369L19.1314 28.454C18.6852 28.828 18.1943 29.1489 17.6737 29.4102C16.6813 29.9075 15.2448 30.375 13.3748 30.375C11.8863 30.3926 10.4142 30.0622 9.07593 29.4102C8.55463 29.149 8.06544 28.8281 7.61818 28.454L7.52255 28.369L7.48855 28.3371L7.4758 28.3244L7.4673 28.3159V28.3137C7.23853 28.0852 7.0847 27.7924 7.02625 27.4744C6.9678 27.1563 7.00749 26.828 7.14005 26.533L11.6281 16.5625H10.7186C10.2959 16.5625 9.89049 16.3946 9.5916 16.0957C9.29271 15.7968 9.1248 15.3914 9.1248 14.9688C9.1248 14.5461 9.29271 14.1407 9.5916 13.8418C9.89049 13.5429 10.2959 13.375 10.7186 13.375H15.4658C15.559 13.3754 15.6506 13.3512 15.7314 13.3049L18.4684 11.7387C19.0316 11.42 19.6669 11.25 20.3151 11.25H22.4061V8.59375C22.4061 8.17106 22.574 7.76568 22.8728 7.4668C23.1717 7.16791 23.5771 7 23.9998 7C24.4225 7 24.8279 7.16791 25.1268 7.4668C25.4256 7.76568 25.5936 8.17106 25.5936 8.59375ZM31.8517 26.6074C32.4573 26.8943 33.3774 27.1875 34.6248 27.1875C35.8722 27.1875 36.7923 26.8943 37.3979 26.6074L34.6248 20.4449L31.8517 26.6074ZM10.6017 26.6074C11.2073 26.8943 12.1274 27.1875 13.3748 27.1875C14.6222 27.1875 15.5423 26.8943 16.1479 26.6074L13.3748 20.4449L10.6017 26.6074Z" fill="white"/>
</svg>
