<svg width="64" height="64" viewBox="0 0 64 64" fill="none" xmlns="http://www.w3.org/2000/svg">
<g clip-path="url(#clip0_1253_7578)">
<rect x="10" y="10" width="44" height="44" rx="22" fill="white"/>
<path d="M31.9957 40.6001C32.5786 40.6001 33.0658 40.4044 33.4572 40.013C33.8485 39.6217 34.0442 39.1345 34.0442 38.5516V31.1946L36.3456 33.4959C36.7429 33.8933 37.2211 34.092 37.7799 34.092C38.3388 34.092 38.8169 33.8933 39.2143 33.4959C39.6117 33.0985 39.8104 32.6204 39.8104 32.0615C39.8104 31.5027 39.6117 31.0245 39.2143 30.6271L33.4301 24.8429C33.2183 24.6234 32.9935 24.4678 32.7558 24.3759C32.5182 24.2841 32.2648 24.2382 31.9957 24.2382C31.7266 24.2382 31.4732 24.2841 31.2356 24.3759C30.9979 24.4678 30.7732 24.6234 30.5613 24.8429L24.7771 30.6271C24.3797 31.0245 24.181 31.5027 24.181 32.0615C24.181 32.6204 24.3797 33.0985 24.7771 33.4959C25.1745 33.8933 25.6526 34.092 26.2115 34.092C26.7703 34.092 27.2485 33.8933 27.6458 33.4959L29.9472 31.1946V38.5516C29.9472 39.1345 30.1429 39.6217 30.5342 40.013C30.9256 40.4044 31.4128 40.6001 31.9957 40.6001ZM31.9957 54C28.9033 54 26.018 53.4344 23.3401 52.3033C20.6621 51.1722 18.3349 49.6183 16.3583 47.6417C14.3817 45.6651 12.8278 43.3379 11.6967 40.6599C10.5656 37.982 10 35.0967 10 32.0043C10 28.9301 10.5656 26.0555 11.6967 23.3804C12.8278 20.7053 14.3817 18.3781 16.3583 16.3986C18.3349 14.4191 20.6621 12.8578 23.3401 11.7147C26.018 10.5716 28.9033 10 31.9957 10C35.0699 10 37.9445 10.5716 40.6196 11.7147C43.2947 12.8578 45.6219 14.4191 47.6014 16.3986C49.5809 18.3781 51.1422 20.7053 52.2853 23.3804C53.4284 26.0555 54 28.9301 54 32.0043C54 35.0967 53.4284 37.982 52.2853 40.6599C51.1422 43.3379 49.5809 45.6651 47.6014 47.6417C45.6219 49.6183 43.2947 51.1722 40.6196 52.3033C37.9445 53.4344 35.0699 54 31.9957 54Z" fill="#616587"/>
</g>
<defs>
<clipPath id="clip0_1253_7578">
<rect x="10" y="10" width="44" height="44" rx="22" fill="white"/>
</clipPath>
</defs>
</svg>
