<svg width="48" height="48" viewBox="0 0 48 48" fill="none" xmlns="http://www.w3.org/2000/svg">
<path d="M11.2666 22.1001L16.8666 16.5001C17.1777 16.189 17.5443 15.9667 17.9666 15.8334C18.3888 15.7001 18.8221 15.6778 19.2666 15.7667L20.9999 16.1334C19.7999 17.5556 18.8555 18.8445 18.1666 20.0001C17.4777 21.1556 16.811 22.5556 16.1666 24.2001L11.2666 22.1001ZM18.0999 25.1334C18.611 23.5334 19.3057 22.0223 20.1839 20.6001C21.0621 19.1778 22.123 17.8445 23.3666 16.6001C25.3221 14.6445 27.5555 13.1832 30.0666 12.2161C32.5777 11.249 34.9221 10.9547 37.0999 11.3334C37.4777 13.5112 37.1888 15.8556 36.2332 18.3667C35.2777 20.8778 33.8221 23.1112 31.8666 25.0667C30.6443 26.289 29.311 27.3503 27.8666 28.2507C26.4221 29.1512 24.8999 29.8565 23.2999 30.3667L18.0999 25.1334ZM27.2999 21.1334C27.811 21.6445 28.439 21.9001 29.1839 21.9001C29.9288 21.9001 30.5563 21.6445 31.0666 21.1334C31.5777 20.6223 31.8332 19.9947 31.8332 19.2507C31.8332 18.5067 31.5777 17.8787 31.0666 17.3667C30.5555 16.8556 29.9275 16.6001 29.1826 16.6001C28.4377 16.6001 27.8101 16.8556 27.2999 17.3667C26.7888 17.8778 26.5332 18.5058 26.5332 19.2507C26.5332 19.9956 26.7888 20.6232 27.2999 21.1334ZM26.3666 37.1667L24.2332 32.2667C25.8777 31.6223 27.2835 30.9556 28.4506 30.2667C29.6177 29.5778 30.9119 28.6334 32.3332 27.4334L32.6666 29.1667C32.7555 29.6112 32.7332 30.0503 32.5999 30.4841C32.4666 30.9178 32.2443 31.2898 31.9332 31.6001L26.3666 37.1667ZM13.3999 29.4001C14.1777 28.6223 15.1221 28.2276 16.2332 28.2161C17.3443 28.2045 18.2888 28.5881 19.0666 29.3667C19.8443 30.1445 20.2332 31.089 20.2332 32.2001C20.2332 33.3112 19.8443 34.2556 19.0666 35.0334C18.511 35.589 17.5835 36.0667 16.2839 36.4667C14.9843 36.8667 13.1897 37.2223 10.8999 37.5334C11.211 35.2445 11.5666 33.4556 11.9666 32.1667C12.3666 30.8778 12.8443 29.9556 13.3999 29.4001Z" fill="white"/>
</svg>
