<svg width="48" height="48" viewBox="0 0 48 48" fill="none" xmlns="http://www.w3.org/2000/svg">
<path d="M36.9178 15.9206C36.57 16.7245 35.43 16.7245 35.0822 15.9206L34.2802 14.0667C34.1804 13.8361 33.9974 13.6514 33.7677 13.5496L31.7703 12.6642C30.9773 12.3127 30.9773 11.1873 31.7703 10.8358L33.7753 9.94702C34.0005 9.8472 34.1809 9.66778 34.282 9.44316L35.0881 7.65168C35.4418 6.86546 36.5582 6.86546 36.9119 7.65168L37.718 9.44316C37.8191 9.66778 37.9995 9.8472 38.2247 9.94702L40.2297 10.8358C41.0227 11.1873 41.0227 12.3127 40.2297 12.6642L38.2323 13.5496C38.0026 13.6514 37.8196 13.8361 37.7198 14.0667L36.9178 15.9206ZM36.9134 40.283C36.5611 41.0737 35.4389 41.0737 35.0866 40.283L34.2834 38.4804C34.1815 38.2518 33.9976 38.0697 33.7681 37.9701L31.7993 37.1156C31.0002 36.7688 30.9958 35.6371 31.7922 35.2841L33.7677 34.4084C33.9974 34.3065 34.1804 34.1219 34.2802 33.8913L35.0822 32.0379C35.4301 31.2341 36.5699 31.2341 36.9178 32.0379L37.7198 33.8913C37.8196 34.1219 38.0026 34.3065 38.2323 34.4084L40.2078 35.2841C41.0042 35.6371 40.9998 36.7688 40.2007 37.1156L38.2319 37.9701C38.0024 38.0697 37.8185 38.2518 37.7166 38.4804L36.9134 40.283ZM19.1565 34.4282C18.7977 35.1987 17.7022 35.1987 17.3435 34.4282L14.4482 28.2104C14.3474 27.994 14.1725 27.8207 13.9551 27.722L7.68268 24.8734C6.89895 24.5175 6.9012 23.4035 7.68637 23.0507L13.9524 20.2356C14.1715 20.1372 14.3478 19.9632 14.4491 19.7455L17.3435 13.5298C17.7022 12.7593 18.7977 12.7593 19.1565 13.5298L22.0508 19.7455C22.1522 19.9632 22.3285 20.1372 22.5476 20.2356L28.8136 23.0507C29.5988 23.4035 29.601 24.5175 28.8173 24.8734L22.5449 27.722C22.3275 27.8207 22.1526 27.994 22.0518 28.2104L19.1565 34.4282Z" fill="white"/>
</svg>
