<svg width="48" height="48" viewBox="0 0 48 48" fill="none" xmlns="http://www.w3.org/2000/svg">
<path d="M24.2001 40C21.987 40 20.1003 39.2199 18.54 37.6596C16.9804 36.0999 16.2006 34.2132 16.2006 31.9995V17.5998C15.3206 17.5998 14.567 17.2865 13.9398 16.66C13.3133 16.0334 13 15.2802 13 14.4002V11.2006C13 10.3206 13.3133 9.56733 13.9398 8.94078C14.567 8.31359 15.3206 8 16.2006 8H32.1996C33.0796 8 33.8332 8.31359 34.4604 8.94078C35.0869 9.56733 35.4002 10.3206 35.4002 11.2006V14.4002C35.4002 15.2802 35.0869 16.0334 34.4604 16.66C33.8332 17.2865 33.0796 17.5998 32.1996 17.5998V31.9995C32.1996 34.2132 31.4198 36.0999 29.8601 37.6596C28.2999 39.2199 26.4132 40 24.2001 40ZM24.2001 37.3197C25.4532 37.3197 26.5533 36.9463 27.5005 36.1994C28.447 35.4532 29.0669 34.4932 29.36 33.3195H25.5201C25.147 33.3195 24.8337 33.1928 24.5802 32.9393C24.3268 32.6865 24.2001 32.3733 24.2001 31.9995C24.2001 31.6264 24.3268 31.3131 24.5802 31.0597C24.8337 30.8063 25.147 30.6795 25.5201 30.6795H29.5203V28.5196H25.5201C25.147 28.5196 24.8337 28.3929 24.5802 28.1394C24.3268 27.8866 24.2001 27.5734 24.2001 27.1996C24.2001 26.8265 24.3268 26.5132 24.5802 26.2598C24.8337 26.0064 25.147 25.8796 25.5201 25.8796H29.5203V23.7197H25.5201C25.147 23.7197 24.8337 23.593 24.5802 23.3395C24.3268 23.0867 24.2001 22.7735 24.2001 22.3997C24.2001 22.0266 24.3268 21.7133 24.5802 21.4599C24.8337 21.2065 25.147 21.0797 25.5201 21.0797H29.5203V17.5998H18.8799V31.9995C18.8799 33.4932 19.3932 34.7534 20.4197 35.7799C21.4469 36.8065 22.707 37.3197 24.2001 37.3197Z" fill="white"/>
</svg>
