<svg width="48" height="48" viewBox="0 0 48 48" fill="none" xmlns="http://www.w3.org/2000/svg">
<path d="M20.8331 39C20.2808 39 19.8331 38.5523 19.8331 38V34.7222C19.8331 34.1699 19.3853 33.7222 18.8331 33.7222H8.33301C7.78072 33.7222 7.33301 33.2745 7.33301 32.7222V31.9445C7.33301 31.3922 7.78072 30.9445 8.33301 30.9445H19.8331C20.5969 30.9445 21.2508 31.2164 21.7948 31.7604C22.3388 32.3044 22.6108 32.9583 22.6108 33.7222V38C22.6108 38.5523 22.1631 39 21.6108 39H20.8331ZM26.3886 39C25.8363 39 25.3886 38.5523 25.3886 38V33.7222C25.3886 32.9583 25.6605 32.3044 26.2045 31.7604C26.7485 31.2164 27.4024 30.9445 28.1663 30.9445H39.6663C40.2186 30.9445 40.6663 31.3922 40.6663 31.9445V32.7222C40.6663 33.2745 40.2186 33.7222 39.6663 33.7222H29.1663C28.614 33.7222 28.1663 34.1699 28.1663 34.7222V38C28.1663 38.5523 27.7186 39 27.1663 39H26.3886ZM13.7219 28.7222C12.4256 28.7222 11.3145 28.2593 10.3885 27.3333C9.46263 26.4074 8.99967 25.2963 8.99967 24V17.7778C8.99967 17.2255 9.44739 16.7777 9.99967 16.7777H37.9997C38.552 16.7777 38.9997 17.2255 38.9997 17.7778V24C38.9997 25.2963 38.5406 26.4074 37.6223 27.3333C36.7041 28.2593 35.5892 28.7222 34.2775 28.7222H13.7219ZM9.99968 15.1111C9.44739 15.1111 8.99967 14.6634 8.99967 14.1111V13.3333C8.99967 12.781 9.44739 12.3333 9.99967 12.3333H18.2775C18.8298 12.3333 19.2775 11.8856 19.2775 11.3333V10.3889C19.2775 9.99537 19.4106 9.66551 19.6768 9.39929C19.943 9.1331 20.2728 9 20.6663 9H27.333C27.7265 9 28.0564 9.1331 28.3226 9.39929C28.5888 9.66551 28.7219 9.99537 28.7219 10.3889V11.3333C28.7219 11.8856 29.1696 12.3333 29.7219 12.3333H37.9997C38.552 12.3333 38.9997 12.781 38.9997 13.3333V14.1111C38.9997 14.6634 38.552 15.1111 37.9997 15.1111H9.99968Z" fill="white"/>
</svg>
