<svg width="48" height="48" viewBox="0 0 48 48" fill="none" xmlns="http://www.w3.org/2000/svg">
<path d="M9.33301 34.6666V29.3333C9.33301 28.6518 9.5719 28.074 10.0497 27.5999C10.5275 27.1259 11.1034 26.8888 11.7774 26.8888H16.3663C16.7663 26.8888 17.1478 26.9888 17.5108 27.1888C17.8738 27.3888 18.1775 27.6629 18.4219 28.011C19.0664 28.9221 19.8793 29.6295 20.8608 30.1333C21.8423 30.637 22.8886 30.8888 23.9997 30.8888C25.1182 30.8888 26.1682 30.637 27.1497 30.1333C28.1312 29.6295 28.9478 28.9221 29.5997 28.011C29.8589 27.6629 30.1645 27.3888 30.5163 27.1888C30.8682 26.9888 31.2404 26.8888 31.633 26.8888H36.2219C36.9034 26.8888 37.4812 27.1259 37.9552 27.5999C38.4293 28.074 38.6663 28.6518 38.6663 29.3333V34.6666H29.7775V31.011C28.9849 31.6851 28.0941 32.2036 27.1052 32.5666C26.1164 32.9295 25.0812 33.111 23.9997 33.111C22.9256 33.111 21.896 32.9277 20.9108 32.561C19.9256 32.1944 19.0293 31.674 18.2219 30.9999V34.6666H9.33301ZM23.9997 29.111C23.1997 29.111 22.433 28.924 21.6997 28.5499C20.9663 28.1759 20.3663 27.6592 19.8997 26.9999C19.5367 26.474 19.0941 26.0536 18.5719 25.7388C18.0497 25.424 17.4849 25.2296 16.8775 25.1555C17.4701 24.437 18.4886 23.8795 19.933 23.4833C21.3775 23.087 22.733 22.8888 23.9997 22.8888C25.2663 22.8888 26.6256 23.087 28.0774 23.4833C29.5293 23.8795 30.5515 24.437 31.1441 25.1555C30.5441 25.2296 29.9811 25.424 29.4552 25.7388C28.9293 26.0536 28.4849 26.474 28.1219 26.9999C27.6626 27.6666 27.0663 28.1851 26.333 28.5555C25.5997 28.9258 24.8219 29.111 23.9997 29.111ZM13.333 24.8888C12.296 24.8888 11.4071 24.5184 10.6663 23.7777C9.92561 23.037 9.55524 22.1481 9.55524 21.111C9.55524 20.0518 9.92561 19.1573 10.6663 18.4277C11.4071 17.6981 12.296 17.3333 13.333 17.3333C14.3923 17.3333 15.2867 17.6981 16.0163 18.4277C16.746 19.1573 17.1108 20.0518 17.1108 21.111C17.1108 22.1481 16.746 23.037 16.0163 23.7777C15.2867 24.5184 14.3923 24.8888 13.333 24.8888ZM34.6663 24.8888C33.6293 24.8888 32.7404 24.5184 31.9997 23.7777C31.2589 23.037 30.8886 22.1481 30.8886 21.111C30.8886 20.0518 31.2589 19.1573 31.9997 18.4277C32.7404 17.6981 33.6293 17.3333 34.6663 17.3333C35.7256 17.3333 36.6201 17.6981 37.3497 18.4277C38.0793 19.1573 38.4441 20.0518 38.4441 21.111C38.4441 22.1481 38.0793 23.037 37.3497 23.7777C36.6201 24.5184 35.7256 24.8888 34.6663 24.8888ZM23.9997 20.8888C22.9626 20.8888 22.0737 20.5184 21.333 19.7777C20.5923 19.037 20.2219 18.1481 20.2219 17.111C20.2219 16.0518 20.5923 15.1573 21.333 14.4277C22.0737 13.6981 22.9626 13.3333 23.9997 13.3333C25.0589 13.3333 25.9534 13.6981 26.683 14.4277C27.4126 15.1573 27.7774 16.0518 27.7774 17.111C27.7774 18.1481 27.4126 19.037 26.683 19.7777C25.9534 20.5184 25.0589 20.8888 23.9997 20.8888Z" fill="white"/>
</svg>
