<svg width="48" height="48" viewBox="0 0 48 48" fill="none" xmlns="http://www.w3.org/2000/svg">
<path d="M10.1112 38.9999C9.36125 38.9999 8.71079 38.7245 8.15987 38.1735C7.60895 37.6226 7.3335 36.9722 7.3335 36.2222V16.7777C7.3335 16.0277 7.60895 15.3772 8.15987 14.8263C8.71079 14.2754 9.36125 13.9999 10.1112 13.9999H17.3335V10.111C17.3335 9.361 17.609 8.71054 18.1599 8.15963C18.7108 7.60871 19.3612 7.33325 20.1112 7.33325H27.8891C28.6391 7.33325 29.2895 7.60871 29.8405 8.15963C30.3914 8.71054 30.6668 9.361 30.6668 10.111V13.9999H37.8891C38.6391 13.9999 39.2895 14.2754 39.8405 14.8263C40.3914 15.3772 40.6668 16.0277 40.6668 16.7777V36.2222C40.6668 36.9722 40.3914 37.6226 39.8405 38.1735C39.2895 38.7245 38.6391 38.9999 37.8891 38.9999H10.1112ZM20.1112 13.9999H27.8891V10.111H20.1112V13.9999Z" fill="white"/>
</svg>
