<svg width="48" height="48" viewBox="0 0 48 48" fill="none" xmlns="http://www.w3.org/2000/svg">
<g clip-path="url(#clip0_1379_21140)">
<path d="M30.375 12H17.625C14.5184 12 12 14.5184 12 17.625V30.375C12 33.4816 14.5184 36 17.625 36H30.375C33.4816 36 36 33.4816 36 30.375V17.625C36 14.5184 33.4816 12 30.375 12Z" fill="#5865F2"/>
<mask id="mask0_1379_21140" style="mask-type:luminance" maskUnits="userSpaceOnUse" x="14" y="16" width="20" height="16">
<path d="M14.625 16.7812H33.375V31.3059H14.625V16.7812Z" fill="white"/>
</mask>
<g mask="url(#mask0_1379_21140)">
<path d="M30.4976 18.0746C29.282 17.5166 27.9991 17.1187 26.6811 16.8909C26.6691 16.8886 26.6567 16.8903 26.6457 16.8955C26.6347 16.9007 26.6257 16.9092 26.6198 16.9199C26.455 17.213 26.2723 17.5955 26.1446 17.896C24.7033 17.6802 23.2696 17.6802 21.858 17.896C21.7302 17.5887 21.541 17.213 21.3754 16.9199C21.3693 16.9095 21.3601 16.9011 21.3492 16.8959C21.3382 16.8907 21.326 16.889 21.314 16.8909C19.9959 17.1182 18.713 17.5162 17.4975 18.0746C17.4871 18.0791 17.4784 18.0866 17.4724 18.0962C15.0417 21.7277 14.3758 25.27 14.7025 28.7683C14.7034 28.7769 14.706 28.7852 14.7102 28.7927C14.7144 28.8003 14.72 28.8069 14.7268 28.8122C16.3305 29.99 17.8841 30.705 19.4087 31.1789C19.4206 31.1825 19.4332 31.1823 19.445 31.1784C19.4568 31.1746 19.4671 31.1672 19.4745 31.1574C19.8352 30.6648 20.1567 30.1455 20.4324 29.5994C20.4362 29.5919 20.4383 29.5837 20.4387 29.5754C20.4391 29.567 20.4378 29.5586 20.4347 29.5508C20.4316 29.543 20.4269 29.5359 20.4209 29.5301C20.4149 29.5242 20.4077 29.5197 20.3998 29.5168C19.8898 29.3233 19.4043 29.0875 18.9373 28.8197C18.9287 28.8147 18.9216 28.8077 18.9165 28.7992C18.9113 28.7908 18.9083 28.7813 18.9077 28.7714C18.9071 28.7615 18.909 28.7517 18.9131 28.7427C18.9172 28.7338 18.9235 28.7259 18.9313 28.72C19.0299 28.6463 19.1267 28.5704 19.2218 28.4923C19.2301 28.4854 19.2402 28.481 19.2509 28.4796C19.2616 28.4781 19.2725 28.4797 19.2823 28.4841C22.351 29.8851 25.673 29.8851 28.7053 28.4841C28.7152 28.4794 28.7263 28.4776 28.7371 28.4789C28.748 28.4803 28.7583 28.4846 28.7668 28.4916C28.8619 28.5701 28.959 28.6462 29.0579 28.72C29.0658 28.7259 29.0721 28.7336 29.0763 28.7426C29.0805 28.7515 29.0824 28.7613 29.0819 28.7712C29.0814 28.7811 29.0785 28.7906 29.0734 28.7991C29.0683 28.8075 29.0612 28.8146 29.0528 28.8197C28.5855 29.0926 28.0959 29.3255 27.5894 29.5161C27.5816 29.5191 27.5744 29.5237 27.5685 29.5297C27.5625 29.5356 27.5579 29.5428 27.5549 29.5506C27.5519 29.5585 27.5506 29.5669 27.5511 29.5753C27.5515 29.5837 27.5538 29.5919 27.5577 29.5994C27.8382 30.1412 28.158 30.6616 28.5147 31.1566C28.5219 31.1667 28.5322 31.1743 28.544 31.1783C28.5558 31.1823 28.5685 31.1825 28.5805 31.1789C30.1125 30.705 31.6661 29.99 33.2698 28.8122C33.2767 28.8071 33.2824 28.8007 33.2866 28.7932C33.2908 28.7858 33.2934 28.7776 33.2942 28.7691C33.6852 24.7246 32.6394 21.2113 30.5219 18.097C30.5168 18.0868 30.5081 18.0789 30.4976 18.0746ZM20.8906 26.6382C19.9667 26.6382 19.2055 25.7901 19.2055 24.7484C19.2055 23.7068 19.952 22.8586 20.8906 22.8586C21.8366 22.8586 22.5904 23.7143 22.5756 24.7484C22.5756 25.7901 21.8293 26.6382 20.8906 26.6382ZM27.1209 26.6382C26.197 26.6382 25.4358 25.7901 25.4358 24.7484C25.4358 23.7068 26.1823 22.8586 27.1209 22.8586C28.0668 22.8586 28.8207 23.7143 28.8059 24.7484C28.8059 25.7901 28.0668 26.6382 27.1209 26.6382Z" fill="white"/>
</g>
</g>
<defs>
<clipPath id="clip0_1379_21140">
<rect width="24" height="24" fill="white" transform="translate(12 12)"/>
</clipPath>
</defs>
</svg>
