<svg width="48" height="48" viewBox="0 0 48 48" fill="none" xmlns="http://www.w3.org/2000/svg">
<path d="M24.0002 10.6667C24.7074 10.6667 25.3857 10.9477 25.8858 11.4478C26.3859 11.9479 26.6668 12.6262 26.6668 13.3334C26.6668 14.3201 26.1335 15.1867 25.3335 15.6401V17.3334H26.6668C29.1422 17.3334 31.5162 18.3167 33.2665 20.0671C35.0168 21.8174 36.0002 24.1914 36.0002 26.6667H37.3335C37.6871 26.6667 38.0263 26.8072 38.2763 27.0573C38.5264 27.3073 38.6668 27.6465 38.6668 28.0001V32.0001C38.6668 32.3537 38.5264 32.6928 38.2763 32.9429C38.0263 33.1929 37.6871 33.3334 37.3335 33.3334H36.0002V34.6667C36.0002 35.374 35.7192 36.0523 35.2191 36.5524C34.719 37.0525 34.0407 37.3334 33.3335 37.3334H14.6668C13.9596 37.3334 13.2813 37.0525 12.7812 36.5524C12.2811 36.0523 12.0002 35.374 12.0002 34.6667V33.3334H10.6668C10.3132 33.3334 9.97407 33.1929 9.72402 32.9429C9.47397 32.6928 9.3335 32.3537 9.3335 32.0001V28.0001C9.3335 27.6465 9.47397 27.3073 9.72402 27.0573C9.97407 26.8072 10.3132 26.6667 10.6668 26.6667H12.0002C12.0002 24.1914 12.9835 21.8174 14.7338 20.0671C16.4842 18.3167 18.8581 17.3334 21.3335 17.3334H22.6668V15.6401C21.8668 15.1867 21.3335 14.3201 21.3335 13.3334C21.3335 12.6262 21.6144 11.9479 22.1145 11.4478C22.6146 10.9477 23.2929 10.6667 24.0002 10.6667ZM18.0002 25.3334C17.1161 25.3334 16.2683 25.6846 15.6431 26.3097C15.018 26.9348 14.6668 27.7827 14.6668 28.6667C14.6668 29.5508 15.018 30.3986 15.6431 31.0238C16.2683 31.6489 17.1161 32.0001 18.0002 32.0001C18.8842 32.0001 19.7321 31.6489 20.3572 31.0238C20.9823 30.3986 21.3335 29.5508 21.3335 28.6667C21.3335 27.7827 20.9823 26.9348 20.3572 26.3097C19.7321 25.6846 18.8842 25.3334 18.0002 25.3334ZM30.0002 25.3334C29.1161 25.3334 28.2683 25.6846 27.6431 26.3097C27.018 26.9348 26.6668 27.7827 26.6668 28.6667C26.6668 29.5508 27.018 30.3986 27.6431 31.0238C28.2683 31.6489 29.1161 32.0001 30.0002 32.0001C30.8842 32.0001 31.7321 31.6489 32.3572 31.0238C32.9823 30.3986 33.3335 29.5508 33.3335 28.6667C33.3335 27.7827 32.9823 26.9348 32.3572 26.3097C31.7321 25.6846 30.8842 25.3334 30.0002 25.3334Z" fill="white"/>
</svg>
