<svg width="48" height="48" viewBox="0 0 48 48" fill="none" xmlns="http://www.w3.org/2000/svg">
<path d="M27.8889 39C27.3982 39 26.9514 38.9468 26.5486 38.8403C26.1458 38.7338 25.7593 38.5833 25.3889 38.3889V9.61113C25.7593 9.41668 26.1412 9.26621 26.5347 9.15971C26.9282 9.05324 27.3611 9 27.8333 9C29.2408 9 30.4514 9.49074 31.4653 10.4722C32.4792 11.4537 33.0278 12.6528 33.1111 14.0695C34.7315 14.2361 36.1181 14.9306 37.2708 16.1528C38.4236 17.375 39 18.8333 39 20.5278C39 21.1574 38.919 21.7546 38.757 22.3195C38.5949 22.8843 38.3611 23.4167 38.0555 23.9167C38.3611 24.4537 38.5949 25.0208 38.757 25.618C38.919 26.2153 39 26.8055 39 27.3889C39 29.1482 38.4468 30.6273 37.3403 31.8264C36.2338 33.0255 34.8565 33.7083 33.2083 33.875C33.0694 35.2269 32.4977 36.419 31.493 37.4514C30.4884 38.4838 29.287 39 27.8889 39ZM20.1111 39C18.6945 39 17.4861 38.4838 16.4861 37.4514C15.4861 36.419 14.9167 35.2269 14.7778 33.875C13.1296 33.7083 11.7546 33.0046 10.6528 31.7639C9.55093 30.5232 9 29.0278 9 27.2778C9 26.6759 9.07639 26.0903 9.22917 25.5208C9.38194 24.9514 9.61111 24.4074 9.91667 23.8889C9.61111 23.3889 9.38194 22.8611 9.22917 22.3055C9.07639 21.75 9 21.1574 9 20.5278C9 18.8518 9.56944 17.4097 10.7083 16.2014C11.8472 14.993 13.2176 14.287 14.8195 14.0833C14.8843 12.6667 15.4306 11.4653 16.4583 10.4792C17.4861 9.49306 18.713 9 20.1389 9C20.6111 9 21.0486 9.05556 21.4514 9.16667C21.8542 9.27778 22.2407 9.43056 22.6111 9.625V38.3889C22.2407 38.5833 21.8542 38.7338 21.4514 38.8403C21.0486 38.9468 20.6018 39 20.1111 39Z" fill="white"/>
</svg>
