<svg width="48" height="48" viewBox="0 0 48 48" fill="none" xmlns="http://www.w3.org/2000/svg">
<path d="M27.3333 9.5C27.3333 10.8833 26.2167 12 24.8333 12C23.45 12 22.3333 10.8833 22.3333 9.5C22.3333 8.11667 23.45 7 24.8333 7C26.2167 7 27.3333 8.11667 27.3333 9.5ZM18.1667 12C16.7833 12 15.6667 13.1167 15.6667 14.5C15.6667 15.8833 16.7833 17 18.1667 17C19.55 17 20.6667 15.8833 20.6667 14.5C20.6667 13.1167 19.55 12 18.1667 12ZM27.3333 23.6667L26.4935 21.2442C26.2683 20.5945 26.7508 19.9167 27.4384 19.9167H30.7306C30.8858 19.9167 31.039 19.8805 31.1778 19.8111L34.5667 18.1167C35.1833 17.8333 35.4333 17.0667 35.1167 16.45C35.0462 16.3018 34.9467 16.1693 34.8241 16.0602C34.7015 15.9511 34.5583 15.8677 34.4029 15.8149C34.2476 15.7621 34.0832 15.7409 33.9195 15.7527C33.7559 15.7644 33.5962 15.8089 33.45 15.8833L32.9219 16.1474C32.4503 16.3832 31.8766 16.2123 31.6109 15.7568L31.2667 15.1667C30.7833 14.0833 29.6 13.4667 28.4333 13.7333L24.3167 14.6167C23.1667 14.8667 22.3333 15.9167 22.3333 17.1167V17.7481C22.3333 18.0825 22.1662 18.3947 21.888 18.5802L18.291 20.9782C18.2887 20.9797 18.2898 20.9833 18.2926 20.9833C18.2951 20.9833 18.2964 20.9865 18.2944 20.9882C18.1616 21.1042 17.9819 21.2528 17.8833 21.45L16.5492 24.1033C16.4523 24.2959 16.2958 24.4521 16.103 24.5485L13.4333 25.8833C12.8167 26.1667 12.5667 26.95 12.8833 27.5667C13.0342 27.8623 13.296 28.0861 13.6114 28.1892C13.9269 28.2923 14.2704 28.2662 14.5667 28.1167L17.9704 26.4148C18.1628 26.3186 18.319 26.163 18.4159 25.971L19.3541 24.1127C19.6676 23.4918 20.5033 23.3726 20.9779 23.881L21.9277 24.8987C22.1777 25.1666 22.2674 25.5509 22.1136 25.8834C20.3809 29.6297 13.6957 34.1093 10.5956 36.0386C9.91748 36.4606 9.96912 37.4468 10.7126 37.7387C13.2136 38.7206 18.2037 40.3333 24 40.3333C30.0239 40.3333 35.1768 38.5916 37.5703 37.6261C38.2471 37.3532 38.3598 36.475 37.8089 35.9964C35.3843 33.8898 29.8891 28.7782 27.3333 23.6667ZM32.0833 22.15L31.7611 22.3111C31.6223 22.3805 31.4692 22.4167 31.3139 22.4167H29.8348C29.697 22.4167 29.6016 22.5543 29.65 22.6833C30.0458 23.4673 30.5251 24.2618 31.0607 25.0428C31.6259 25.8668 32.7951 25.3425 32.6416 24.3552L32.3177 22.271C32.3007 22.1617 32.1823 22.1005 32.0833 22.15Z" fill="white"/>
</svg>
