<svg width="48" height="48" viewBox="0 0 48 48" fill="none" xmlns="http://www.w3.org/2000/svg">
<path d="M24 39.6885C23.5854 39.6885 23.2373 39.5477 22.9557 39.2661C22.6741 38.9852 22.5333 38.6372 22.5333 38.2219V25.8219H21.9115C20.0149 25.8219 18.2222 25.4592 16.5333 24.7339C14.8444 24.0078 13.3333 22.9781 12 21.6448C10.6965 20.3115 9.70382 18.7705 9.02187 17.0219C8.34062 15.274 8 13.4517 8 11.5552V9.46667C8 9.05209 8.1408 8.704 8.4224 8.4224C8.704 8.1408 9.05209 8 9.46667 8H11.5115C13.3483 8 15.1186 8.36302 16.8224 9.08907C18.5262 9.81511 20.0448 10.8448 21.3781 12.1781C22.3559 13.1559 23.1559 14.2446 23.7781 15.4443C24.4004 16.6446 24.8594 17.9115 25.1552 19.2448C25.3628 18.9483 25.5851 18.6592 25.8219 18.3776C26.0594 18.096 26.3115 17.8073 26.5781 17.5115C27.9115 16.1781 29.43 15.1484 31.1339 14.4224C32.837 13.6964 34.6219 13.3333 36.4885 13.3333H38.5333C38.9479 13.3333 39.296 13.4741 39.5776 13.7557C39.8592 14.0373 40 14.3854 40 14.8V16.8885C40 18.7851 39.6444 20.6073 38.9333 22.3552C38.2222 24.1038 37.2 25.6448 35.8667 26.9781C34.5333 28.3115 33.0222 29.3337 31.3333 30.0448C29.6444 30.7559 27.8667 31.1115 26 31.1115H25.4667V38.2219C25.4667 38.6372 25.3259 38.9852 25.0443 39.2661C24.7627 39.5477 24.4146 39.6885 24 39.6885Z" fill="white"/>
</svg>
