<svg width="48" height="48" viewBox="0 0 48 48" fill="none" xmlns="http://www.w3.org/2000/svg">
<path d="M19.4001 33.4501C19.1376 33.1487 19.0014 32.7987 18.9917 32.4001C18.982 32.0015 19.1181 31.6612 19.4001 31.3793L26.8084 23.9709L19.3709 16.5334C19.1084 16.2709 18.982 15.9258 18.9917 15.498C19.0014 15.0702 19.1376 14.7251 19.4001 14.4626C19.7014 14.1612 20.0466 14.0154 20.4355 14.0251C20.8244 14.0348 21.1598 14.1807 21.4417 14.4626L29.9292 22.9501C30.0848 23.1057 30.1942 23.2661 30.2574 23.4314C30.3205 23.5967 30.3521 23.7765 30.3521 23.9709C30.3521 24.1654 30.3205 24.3453 30.2574 24.5105C30.1942 24.6758 30.0848 24.8362 29.9292 24.9918L21.4709 33.4501C21.1889 33.7321 20.8487 33.8682 20.4501 33.8584C20.0514 33.8487 19.7014 33.7126 19.4001 33.4501Z" fill="#616587"/>
</svg>
