<svg width="48" height="48" viewBox="0 0 48 48" fill="none" xmlns="http://www.w3.org/2000/svg">
<g clip-path="url(#clip0_1379_21179)">
<path d="M35.47 18.632C35.3323 18.1233 35.0638 17.6595 34.6911 17.2868C34.3185 16.9142 33.8547 16.6456 33.346 16.5079C31.4835 16 23.9878 16 23.9878 16C23.9878 16 16.4918 16.0154 14.6293 16.5233C14.1206 16.661 13.6568 16.9296 13.2842 17.3023C12.9115 17.6749 12.643 18.1388 12.5053 18.6475C11.942 21.9567 11.7235 26.9991 12.5208 30.1759C12.6585 30.6847 12.927 31.1485 13.2996 31.5211C13.6723 31.8938 14.1361 32.1623 14.6448 32.3C16.5072 32.808 24.0031 32.808 24.0031 32.808C24.0031 32.808 31.4989 32.808 33.3612 32.3C33.87 32.1624 34.3338 31.8938 34.7064 31.5211C35.0791 31.1485 35.3477 30.6847 35.4853 30.1759C36.0795 26.8621 36.2626 21.8227 35.47 18.632Z" fill="#FF0000"/>
<path d="M21.6021 28.0056L27.8203 24.4039L21.6021 20.8022V28.0056Z" fill="white"/>
</g>
<defs>
<clipPath id="clip0_1379_21179">
<rect width="24" height="16.875" fill="white" transform="translate(12 16)"/>
</clipPath>
</defs>
</svg>
