<svg width="48" height="48" viewBox="0 0 48 48" fill="none" xmlns="http://www.w3.org/2000/svg">
<path d="M27.5999 34.4501C27.8624 34.1487 27.9986 33.7987 28.0083 33.4001C28.018 33.0015 27.8819 32.6612 27.5999 32.3793L20.1916 24.9709L27.6291 17.5334C27.8916 17.2709 28.018 16.9258 28.0083 16.498C27.9986 16.0702 27.8624 15.7251 27.5999 15.4626C27.2986 15.1612 26.9534 15.0154 26.5645 15.0251C26.1756 15.0348 25.8402 15.1807 25.5583 15.4626L17.0708 23.9501C16.9152 24.1057 16.8058 24.2661 16.7426 24.4314C16.6795 24.5967 16.6479 24.7765 16.6479 24.9709C16.6479 25.1654 16.6795 25.3453 16.7426 25.5105C16.8058 25.6758 16.9152 25.8362 17.0708 25.9918L25.5291 34.4501C25.8111 34.7321 26.1513 34.8682 26.5499 34.8584C26.9486 34.8487 27.2986 34.7126 27.5999 34.4501Z" fill="white"/>
</svg>
