<svg width="48" height="48" viewBox="0 0 48 48" fill="none" xmlns="http://www.w3.org/2000/svg">
<path d="M35.6668 25.3888C35.2687 25.3888 34.9377 25.2569 34.6738 24.993C34.4099 24.7291 34.278 24.3981 34.278 24C34.278 23.6018 34.4099 23.2708 34.6738 23.0069C34.9377 22.743 35.2687 22.6111 35.6668 22.6111H39.278C39.6761 22.6111 40.0071 22.743 40.271 23.0069C40.5349 23.2708 40.6668 23.6018 40.6668 24C40.6668 24.3981 40.5349 24.7291 40.271 24.993C40.0071 25.2569 39.6761 25.3888 39.278 25.3888H35.6668ZM35.2224 36.5L32.3057 34.3333C31.9909 34.0925 31.8057 33.787 31.7502 33.4166C31.6946 33.0463 31.7872 32.7037 32.028 32.3889C32.2687 32.074 32.5743 31.8888 32.9446 31.8333C33.315 31.7777 33.6576 31.8703 33.9724 32.1111L36.889 34.2778C37.2039 34.5185 37.3891 34.8241 37.4446 35.1944C37.5002 35.5648 37.4076 35.9074 37.1668 36.2222C36.9261 36.537 36.6205 36.7222 36.2502 36.7778C35.8798 36.8333 35.5372 36.7407 35.2224 36.5ZM34.0557 15.861C33.7409 16.1018 33.3983 16.1944 33.028 16.1388C32.6576 16.0833 32.352 15.8981 32.1113 15.5833C31.8705 15.2685 31.7779 14.9259 31.8335 14.5555C31.8891 14.1851 32.0742 13.8796 32.3891 13.6388L35.2224 11.5C35.5372 11.2592 35.8798 11.1666 36.2502 11.2222C36.6205 11.2777 36.9261 11.4629 37.1668 11.7778C37.4076 12.0926 37.5002 12.4351 37.4446 12.8055C37.3891 13.1759 37.2039 13.4814 36.889 13.7222L34.0557 15.861ZM12.6113 35.6666V29H10.1112C9.34275 29 8.68766 28.7291 8.146 28.1875C7.60433 27.6458 7.3335 26.9907 7.3335 26.2222V21.7777C7.3335 21.0092 7.60433 20.3541 8.146 19.8125C8.68766 19.2708 9.34275 19 10.1112 19H17.3335L23.5696 15.25C24.0326 14.9722 24.4979 14.9722 24.9655 15.25C25.433 15.5277 25.6668 15.9305 25.6668 16.4583V31.5416C25.6668 32.0694 25.433 32.4722 24.9655 32.75C24.4979 33.0277 24.0326 33.0277 23.5696 32.75L17.3335 29H15.389V35.6666H12.6113ZM27.3335 29.5833V18.4166C28.0835 19.0833 28.6877 19.8958 29.146 20.8541C29.6043 21.8125 29.8335 22.8611 29.8335 24C29.8335 25.1388 29.6043 26.1875 29.146 27.1458C28.6877 28.1041 28.0835 28.9166 27.3335 29.5833Z" fill="white"/>
</svg>
