<svg width="48" height="48" viewBox="0 0 48 48" fill="none" xmlns="http://www.w3.org/2000/svg">
<path d="M29 40.25C28.6667 40.25 28.375 40.125 28.125 39.875C27.875 39.625 27.75 39.3333 27.75 39V37.2917C26.9722 37.2083 26.2359 37.029 25.541 36.7537C24.846 36.4784 24.1935 36.1022 23.5833 35.625L21.9583 37.25C21.7065 37.4792 21.4074 37.599 21.0611 37.6094C20.7148 37.6198 20.4167 37.4993 20.1667 37.2478C19.9167 36.9963 19.7917 36.6977 19.7917 36.352C19.7917 36.0062 19.9167 35.7083 20.1667 35.4583L21.8333 33.8333C21.7037 33.6424 21.5741 33.4418 21.4445 33.2318C21.3148 33.0217 21.1944 32.8056 21.0833 32.5833L19.7917 30L17.6667 32.125C17.4091 32.3542 17.1086 32.474 16.7652 32.4844C16.4217 32.4948 16.125 32.375 15.875 32.125C15.625 31.875 15.5 31.5833 15.5 31.25C15.5 30.9167 15.625 30.625 15.875 30.375L18 28.2083L15.4167 26.9167C15.2222 26.8056 15.0347 26.7014 14.8542 26.6042C14.6736 26.5069 14.5 26.3889 14.3333 26.25L12.875 27.7083C12.6231 27.9375 12.3241 28.0573 11.9778 28.0677C11.6315 28.0781 11.3333 27.9583 11.0833 27.7083C10.8333 27.4583 10.7083 27.1667 10.7083 26.8333C10.7083 26.5 10.8333 26.2083 11.0833 25.9583L12.5 24.5417C12.0278 23.9306 11.6319 23.2639 11.3125 22.5417C10.9931 21.8194 10.7917 21.0556 10.7083 20.25H9C8.66667 20.25 8.375 20.125 8.125 19.875C7.875 19.625 7.75 19.3264 7.75 18.9792C7.75 18.6319 7.875 18.3403 8.125 18.1042C8.375 17.8681 8.66667 17.75 9 17.75H10.8C10.9333 17.0833 11.1319 16.4444 11.3958 15.8333C11.6597 15.2222 11.9861 14.6528 12.375 14.125L10.9583 12.7083C10.7083 12.4583 10.5833 12.1667 10.5833 11.8333C10.5833 11.5 10.7083 11.2083 10.9583 10.9583C11.2083 10.7083 11.5 10.5833 11.8333 10.5833C12.1667 10.5833 12.4583 10.7083 12.7083 10.9583L14.125 12.375C14.6528 11.9861 15.2222 11.6597 15.8333 11.3958C16.4444 11.1319 17.0833 10.9333 17.75 10.8V9C17.75 8.64583 17.875 8.34896 18.125 8.10938C18.375 7.86979 18.6736 7.75 19.0208 7.75C19.3681 7.75 19.6597 7.86979 19.8958 8.10938C20.1319 8.34896 20.25 8.64583 20.25 9V10.7083C21.0556 10.7917 21.8196 10.9935 22.542 11.3138C23.2644 11.6341 23.9449 12.0434 24.5833 12.5417L26 11.125C26.2519 10.875 26.5509 10.75 26.8972 10.75C27.2435 10.75 27.5417 10.875 27.7917 11.125C28.0417 11.375 28.1667 11.6667 28.1667 12C28.1667 12.3333 28.0417 12.625 27.7917 12.875L26.2917 14.375C26.4028 14.5417 26.5129 14.7062 26.622 14.8686C26.7312 15.031 26.8294 15.2137 26.9167 15.4167L28.1667 17.9167L30.1667 15.875C30.4185 15.625 30.7176 15.5 31.0639 15.5C31.4102 15.5 31.7083 15.6257 31.9583 15.8772C32.2083 16.1287 32.3333 16.4273 32.3333 16.773C32.3333 17.1188 32.2083 17.4167 31.9583 17.6667L29.875 19.7083L32.5833 21.0833L33.25 21.5L33.9167 21.9167L35.5417 20.2917C35.7917 20.0417 36.0833 19.9167 36.4167 19.9167C36.75 19.9167 37.0417 20.0424 37.2917 20.2939C37.5417 20.5453 37.6667 20.8439 37.6667 21.1897C37.6667 21.5355 37.5417 21.8333 37.2917 22.0833L35.6667 23.6667C36.1111 24.25 36.4722 24.8889 36.75 25.5833C37.0278 26.2778 37.2083 27 37.2917 27.75H39C39.3542 27.75 39.651 27.8698 39.8906 28.1094C40.1302 28.349 40.25 28.6458 40.25 29C40.25 29.3333 40.1302 29.625 39.8906 29.875C39.651 30.125 39.3542 30.25 39 30.25H37.2C37.0667 30.9167 36.875 31.5556 36.625 32.1667C36.375 32.7778 36.0556 33.3472 35.6667 33.875L37 35.2083C37.25 35.4602 37.375 35.7593 37.375 36.1055C37.375 36.4518 37.2493 36.75 36.9978 37C36.7463 37.2292 36.4477 37.349 36.102 37.3594C35.7562 37.3698 35.4583 37.25 35.2083 37L33.875 35.625C33.3472 36.0139 32.7778 36.3403 32.1667 36.6042C31.5556 36.8681 30.9167 37.0667 30.25 37.2V39C30.25 39.3333 30.1302 39.625 29.8906 39.875C29.651 40.125 29.3542 40.25 29 40.25ZM28.75 34.8333C30.6667 34.8333 32.2222 34.1181 33.4167 32.6875C34.6111 31.2569 35.0556 29.625 34.75 27.7917C34.5868 26.8194 34.2196 25.9444 33.6484 25.1667C33.0773 24.3889 32.3472 23.7778 31.4583 23.3333L28.7083 21.9167C28.1546 21.6241 27.6551 21.2524 27.2097 20.8015C26.7643 20.3505 26.3889 19.8472 26.0833 19.2917L24.6667 16.5417C24.1389 15.4861 23.3932 14.6597 22.4297 14.0625C21.4661 13.4653 20.4062 13.1667 19.25 13.1667C17.3333 13.1667 15.7778 13.8819 14.5833 15.3125C13.3889 16.7431 12.9444 18.375 13.25 20.2083C13.4132 21.1806 13.7804 22.0556 14.3516 22.8333C14.9228 23.6111 15.6528 24.2222 16.5417 24.6667L19.2917 26.0417C19.856 26.341 20.3652 26.7214 20.8191 27.1828C21.273 27.6443 21.6528 28.1528 21.9583 28.7083L23.3333 31.4583C23.8611 32.5139 24.6068 33.3403 25.5703 33.9375C26.5339 34.5347 27.5938 34.8333 28.75 34.8333ZM19.8333 21.5C20.5278 21.5 21.1181 21.2569 21.6042 20.7708C22.0903 20.2847 22.3333 19.6944 22.3333 19C22.3333 18.3056 22.0903 17.7153 21.6042 17.2292C21.1181 16.7431 20.5278 16.5 19.8333 16.5C19.1389 16.5 18.5486 16.7431 18.0625 17.2292C17.5764 17.7153 17.3333 18.3056 17.3333 19C17.3333 19.6944 17.5764 20.2847 18.0625 20.7708C18.5486 21.2569 19.1389 21.5 19.8333 21.5ZM28.1667 31.9167C28.75 31.9167 29.2431 31.7153 29.6458 31.3125C30.0486 30.9097 30.25 30.4167 30.25 29.8333C30.25 29.25 30.0486 28.7569 29.6458 28.3542C29.2431 27.9514 28.75 27.75 28.1667 27.75C27.5833 27.75 27.0903 27.9514 26.6875 28.3542C26.2847 28.7569 26.0833 29.25 26.0833 29.8333C26.0833 30.4167 26.2847 30.9097 26.6875 31.3125C27.0903 31.7153 27.5833 31.9167 28.1667 31.9167Z" fill="white"/>
</svg>
