<svg width="48" height="48" viewBox="0 0 48 48" fill="none" xmlns="http://www.w3.org/2000/svg">
<path d="M24.0417 30.3889C23.3936 30.3889 22.8681 30.162 22.4654 29.7083C22.0626 29.2546 21.8982 28.7083 21.9723 28.0695C22.0927 27.0139 22.3843 26.0833 22.8473 25.2778C23.3103 24.4722 24.0278 23.6389 25.0001 22.7778C26.1575 21.7407 27.0441 20.7986 27.6598 19.9514C28.2755 19.1042 28.5834 18.1789 28.5834 17.1757C28.5834 15.966 28.177 14.9583 27.3641 14.1527C26.5512 13.3472 25.4206 12.9444 23.9723 12.9444C22.9908 12.9444 22.1699 13.1452 21.5096 13.5468C20.8493 13.9484 20.3137 14.4467 19.9028 15.0417C19.5695 15.5231 19.1505 15.8518 18.6459 16.0277C18.1413 16.2037 17.6502 16.1929 17.1727 15.9953C16.5946 15.7484 16.2246 15.3241 16.0626 14.7222C15.9005 14.1203 15.9769 13.5694 16.2917 13.0694C17.0788 11.8935 18.1197 10.9213 19.4144 10.1528C20.7091 9.38426 22.2284 9 23.9723 9C26.7997 9 28.9742 9.78639 30.4956 11.3592C32.0171 12.932 32.7778 14.8207 32.7778 17.0252C32.7778 18.3695 32.4885 19.5671 31.9098 20.618C31.3311 21.669 30.4121 22.8009 29.1529 24.0139C28.1899 24.9398 27.514 25.6898 27.1251 26.2639C26.7362 26.838 26.4816 27.4954 26.3612 28.2361C26.2686 28.8565 26.0055 29.3704 25.5719 29.7778C25.1384 30.1852 24.6283 30.3889 24.0417 30.3889ZM23.9698 40.6667C23.1289 40.6667 22.4098 40.3672 21.8126 39.7684C21.2153 39.1695 20.9167 38.4496 20.9167 37.6087C20.9167 36.7677 21.2162 36.0486 21.815 35.4514C22.4139 34.8542 23.1338 34.5556 23.9747 34.5556C24.8157 34.5556 25.5348 34.855 26.132 35.4539C26.7292 36.0527 27.0278 36.7726 27.0278 37.6136C27.0278 38.4545 26.7284 39.1736 26.1295 39.7708C25.5307 40.3681 24.8108 40.6667 23.9698 40.6667Z" fill="white"/>
</svg>
