<svg width="48" height="48" viewBox="0 0 48 48" fill="none" xmlns="http://www.w3.org/2000/svg">
<g clip-path="url(#clip0_1379_21178)">
<rect x="12" y="12" width="24" height="24" rx="2" fill="white"/>
<path d="M32.4491 32.4492H28.8931V26.8802C28.8931 25.5522 28.8694 23.8427 27.0436 23.8427C25.1915 23.8427 24.9081 25.2896 24.9081 26.7835V32.4488H21.3521V20.9967H24.7658V22.5618H24.8137C25.1553 21.9776 25.649 21.4971 26.2421 21.1713C26.8353 20.8455 27.5057 20.6867 28.1819 20.7118C31.7861 20.7118 32.4506 23.0826 32.4506 26.1668L32.4491 32.4492ZM17.3396 19.4314C16.1999 19.4316 15.2758 18.5078 15.2756 17.368C15.2754 16.2283 16.1992 15.3042 17.3389 15.304C18.4786 15.3038 19.4027 16.2276 19.4029 17.3673C19.403 17.9146 19.1857 18.4395 18.7987 18.8266C18.4118 19.2137 17.8869 19.4313 17.3396 19.4314ZM19.1177 32.4493H15.5579V20.9967H19.1176V32.4492L19.1177 32.4493ZM34.2219 12.0015H13.771C12.8045 11.9906 12.0118 12.7649 12 13.7315V34.2677C12.0114 35.2347 12.804 36.0098 13.7709 35.9996H34.2219C35.1909 36.0116 35.9866 35.2366 36 34.2677V13.7299C35.9862 12.7614 35.1905 11.9873 34.2219 11.9999" fill="#0A66C2"/>
</g>
<defs>
<clipPath id="clip0_1379_21178">
<rect x="12" y="12" width="24" height="24" rx="2" fill="white"/>
</clipPath>
</defs>
</svg>
