<svg width="48" height="48" viewBox="0 0 48 48" fill="none" xmlns="http://www.w3.org/2000/svg">
<path d="M18.0002 33.9999L23.3335 30.6666L18.0002 27.3333V33.9999ZM25.3335 18.3333H30.6668V16.3333H25.3335V18.3333ZM12.0002 38.6666C11.2668 38.6666 10.6388 38.4053 10.1162 37.8826C9.5935 37.3599 9.33261 36.7324 9.3335 35.9999V25.3333C9.3335 24.5999 9.59483 23.9719 10.1175 23.4493C10.6402 22.9266 11.2677 22.6657 12.0002 22.6666H28.0002C28.7335 22.6666 29.3615 22.9279 29.8842 23.4506C30.4068 23.9733 30.6677 24.6008 30.6668 25.3333V35.9999C30.6668 36.7333 30.4055 37.3613 29.8828 37.8839C29.3602 38.4066 28.7326 38.6675 28.0002 38.6666H12.0002ZM32.6668 26.6666V25.3333C32.6668 24.4888 32.4611 23.711 32.0495 22.9999C31.6379 22.2888 31.0882 21.7333 30.4002 21.3333H30.6668C31.7779 21.3333 32.7224 20.9444 33.5002 20.1666C34.2779 19.3888 34.6668 18.4444 34.6668 17.3333C34.6668 16.2221 34.2779 15.2777 33.5002 14.4999C32.7224 13.7221 31.7779 13.3333 30.6668 13.3333H29.0002V15.3333H30.6668C31.2224 15.3333 31.6948 15.5279 32.0842 15.9173C32.4735 16.3066 32.6677 16.7786 32.6668 17.3333C32.6668 17.8888 32.4722 18.3613 32.0828 18.7506C31.6935 19.1399 31.2215 19.3341 30.6668 19.3333H29.0002V20.7666C28.8224 20.7221 28.6557 20.6941 28.5002 20.6826C28.3446 20.671 28.1779 20.6657 28.0002 20.6666H27.0002V19.3333H25.3335C24.7779 19.3333 24.3055 19.1386 23.9162 18.7493C23.5268 18.3599 23.3326 17.8879 23.3335 17.3333C23.3335 16.7777 23.5282 16.3053 23.9175 15.9159C24.3068 15.5266 24.7788 15.3324 25.3335 15.3333H27.0002V13.3333H25.3335C24.2224 13.3333 23.2779 13.7221 22.5002 14.4999C21.7224 15.2777 21.3335 16.2221 21.3335 17.3333C21.3335 18.0444 21.5002 18.6835 21.8335 19.2506C22.1668 19.8177 22.6002 20.2897 23.1335 20.6666H17.3335V11.9999C17.3335 11.2666 17.5948 10.6386 18.1175 10.1159C18.6402 9.59325 19.2677 9.33237 20.0002 9.33325H36.0002C36.7335 9.33325 37.3615 9.59459 37.8842 10.1173C38.4068 10.6399 38.6677 11.2675 38.6668 11.9999V23.9999C38.6668 24.7333 38.4055 25.3613 37.8828 25.8839C37.3602 26.4066 36.7326 26.6675 36.0002 26.6666H32.6668Z" fill="white"/>
</svg>
