<svg width="48" height="48" viewBox="0 0 48 48" fill="none" xmlns="http://www.w3.org/2000/svg">
<path d="M28.5246 40.5864C28.0895 40.5864 27.7242 40.4308 27.4286 40.1195C27.1331 39.8091 26.9853 39.4516 26.9853 39.047C26.9853 38.5805 27.1331 38.1995 27.4286 37.904C27.7242 37.6084 28.0895 37.4606 28.5246 37.4606C30.2353 37.4606 31.6971 37.1188 32.9099 36.4351C34.1228 35.7507 34.7292 34.9577 34.7292 34.0561C34.7292 33.4336 34.356 32.8347 33.6096 32.2592C33.2049 31.9476 32.7224 31.6655 32.1623 31.4131C31.4697 31.1011 31.2336 30.1816 31.7708 29.6445L32.509 28.9063C32.7825 28.6328 33.1907 28.5382 33.5483 28.6856C34.9018 29.2436 35.9329 29.9451 36.6414 30.7904C37.4504 31.7547 37.855 32.8432 37.855 34.0561C37.855 36.1392 36.8985 37.7483 34.9856 38.8836C33.0734 40.0188 30.9197 40.5864 28.5246 40.5864ZM13.1284 26.2679C12.8709 26.5252 12.4926 26.6256 12.1479 26.5088C10.8153 26.0572 9.81371 25.455 9.14306 24.7023C8.38102 23.8477 8 22.9226 8 21.9269C8 20.7768 8.42767 19.7584 9.283 18.8717C10.1383 17.9857 11.9654 17.014 14.7643 15.9564C16.7855 15.1481 18.0838 14.5338 18.6592 14.1136C19.2347 13.6941 19.5224 13.2045 19.5224 12.6448C19.5224 11.9603 19.188 11.3692 18.5193 10.8714C17.8505 10.3743 16.8321 10.1258 15.464 10.1258C14.655 10.1258 13.9627 10.2269 13.3873 10.4292C12.8126 10.6307 12.292 10.9647 11.8255 11.4312C11.5456 11.7111 11.1956 11.8745 10.7754 11.9215C10.3559 11.9678 9.97488 11.851 9.6323 11.5711C9.25912 11.2912 9.05723 10.9494 9.02662 10.5456C8.99528 10.1411 9.11955 9.76789 9.39943 9.42606C9.95921 8.74164 10.7757 8.16619 11.849 7.69972C12.9215 7.23324 14.1265 7 15.464 7C17.6098 7 19.3358 7.50529 20.6419 8.51587C21.9481 9.52644 22.6011 10.9027 22.6011 12.6448C22.6011 13.8882 22.1578 14.9689 21.2711 15.887C20.3852 16.8042 18.6204 17.776 15.9768 18.8023C13.9862 19.5792 12.6801 20.1778 12.0584 20.598C11.4366 21.0175 11.1258 21.4604 11.1258 21.9269C11.1258 22.3628 11.4601 22.7752 12.1289 23.164C12.4793 23.3676 12.9219 23.565 13.4567 23.7561C14.1863 24.0168 14.444 24.9529 13.896 25.5006L13.1284 26.2679ZM37.7224 19.3543C37.3319 19.745 36.6986 19.7451 36.308 19.3545L31.098 14.1445C30.7075 13.754 30.7075 13.1208 31.098 12.7303L32.4431 11.3853C33.0655 10.7628 33.7809 10.4516 34.5892 10.4516C35.3975 10.4516 36.0973 10.7628 36.6884 11.3853L39.0674 13.7643C39.6891 14.3547 40 15.0544 40 15.8635C40 16.6718 39.6891 17.3868 39.0674 18.0085L37.7224 19.3543ZM10.6589 40.5864C10.441 40.5864 10.2544 40.5088 10.0991 40.3535C9.94391 40.1975 9.86628 40.011 9.86628 39.7938V34.2889C9.86628 34.2374 9.92002 34.0996 10.0275 33.8754C10.0741 33.7782 10.138 33.6903 10.2142 33.6141L27.4917 16.3366C27.8822 15.9461 28.5155 15.9461 28.906 16.3367L34.1151 21.5467C34.5056 21.9373 34.5056 22.5704 34.1151 22.9609L16.7235 40.3535C16.6977 40.3788 16.5663 40.4359 16.3295 40.5251C16.2201 40.5662 16.104 40.5864 15.9871 40.5864H10.6589Z" fill="white"/>
</svg>
