<svg width="48" height="48" viewBox="0 0 48 48" fill="none" xmlns="http://www.w3.org/2000/svg">
<g clip-path="url(#clip0_1253_7448)">
<path d="M37.3299 39.5025L26.6929 28.8666C25.7877 29.6205 24.7318 30.2161 23.5253 30.6535C22.3181 31.0917 21.0507 31.3107 19.7233 31.3107C16.434 31.3107 13.6578 30.1792 11.3947 27.9161C9.13155 25.653 8 22.9068 8 19.6776C8 16.4492 9.13155 13.6958 11.3947 11.4175C13.6578 9.13916 16.4188 8 19.6776 8C22.9061 8 25.6519 9.13916 27.915 11.4175C30.1781 13.6958 31.3097 16.4492 31.3097 19.6776C31.3097 20.9754 31.0986 22.2203 30.6764 23.4123C30.2541 24.6043 29.6357 25.7131 28.821 26.7385L39.5481 37.3755C39.8494 37.6775 40 38.032 40 38.439C40 38.8467 39.8342 39.2012 39.5025 39.5025C39.2005 39.8045 38.8308 39.9555 38.3934 39.9555C37.956 39.9555 37.6015 39.8045 37.3299 39.5025ZM19.6776 28.2778C22.0617 28.2778 24.0909 27.4403 25.7652 25.7652C27.4403 24.0909 28.2778 22.0617 28.2778 19.6776C28.2778 17.2943 27.4403 15.2575 25.7652 13.5672C24.0909 11.8777 22.0617 11.0329 19.6776 11.0329C17.2639 11.0329 15.2195 11.8777 13.5444 13.5672C11.8701 15.2575 11.0329 17.2943 11.0329 19.6776C11.0329 22.0617 11.8701 24.0909 13.5444 25.7652C15.2195 27.4403 17.2639 28.2778 19.6776 28.2778Z" fill="#616587"/>
</g>
<defs>
<clipPath id="clip0_1253_7448">
<rect width="48" height="48" fill="white"/>
</clipPath>
</defs>
</svg>
