<svg width="48" height="48" viewBox="0 0 48 48" fill="none" xmlns="http://www.w3.org/2000/svg">
<path d="M32.6389 40.6667C30.4179 40.6667 28.5247 39.884 26.9592 38.3186C25.3938 36.7532 24.6111 34.86 24.6111 32.639C24.6111 30.4179 25.3938 28.5247 26.9592 26.9593C28.5247 25.3939 30.4179 24.6112 32.6389 24.6112C34.8599 24.6112 36.7531 25.3939 38.3185 26.9593C39.884 28.5247 40.6667 30.4179 40.6667 32.639C40.6667 34.86 39.884 36.7532 38.3185 38.3186C36.7531 39.884 34.8599 40.6667 32.6389 40.6667ZM34.5972 36.1806C34.7639 36.3473 34.9583 36.4306 35.1805 36.4306C35.4028 36.4306 35.5972 36.3473 35.7639 36.1806C35.9305 36.0133 36.0139 35.8182 36.0139 35.5952C36.0139 35.3722 35.9305 35.1771 35.7639 35.0098L33.2222 32.4592V28.6123C33.2222 28.3893 33.1417 28.1991 32.9805 28.0417C32.8194 27.8843 32.6315 27.8056 32.4167 27.8056C32.1944 27.8056 32 27.889 31.8333 28.0556C31.6667 28.2223 31.5833 28.4167 31.5833 28.639V32.514C31.5833 32.6911 31.6157 32.8627 31.6805 33.0288C31.7454 33.1948 31.8426 33.3519 31.9722 33.5L34.5972 36.1806ZM11.7778 38.6111C11.0139 38.6111 10.3599 38.3391 9.81596 37.7952C9.27199 37.2512 9 36.5973 9 35.8334V11.8889C9 11.125 9.25232 10.4711 9.75696 9.92712C10.2616 9.38315 10.7685 9.11117 11.2778 9.11117H19.2083C19.4398 8.13894 19.9583 7.34033 20.7639 6.71533C21.5694 6.09033 22.4815 5.77783 23.5 5.77783C24.537 5.77783 25.456 6.09033 26.2569 6.71533C27.0578 7.34033 27.574 8.13894 27.8055 9.11117H35.7222C36.4861 9.11117 37.14 9.38315 37.684 9.92712C38.228 10.4711 38.5 11.125 38.5 11.8889V23.5556C38.0556 23.2686 37.6063 23.0234 37.1523 22.8201C36.6983 22.6168 36.2216 22.436 35.7222 22.2778V11.8889H31.6667V14.389C31.6667 15.1528 31.3947 15.8067 30.8507 16.3507C30.3067 16.8947 29.6528 17.1667 28.8889 17.1667H18.6111C17.8472 17.1667 17.1933 16.8947 16.6493 16.3507C16.1053 15.8067 15.8333 15.1528 15.8333 14.389V11.8889H11.7778V35.8334H22.3056C22.463 36.3148 22.6482 36.7824 22.8611 37.2362C23.0741 37.6899 23.3334 38.1482 23.6389 38.6111H11.7778ZM24 11.7778C24.4722 11.7778 24.8681 11.6181 25.1875 11.2986C25.5069 10.9792 25.6667 10.5833 25.6667 10.1111C25.6667 9.6389 25.5069 9.24307 25.1875 8.92362C24.8681 8.60418 24.4722 8.44446 24 8.44446C23.5278 8.44446 23.1319 8.60418 22.8125 8.92362C22.4931 9.24307 22.3333 9.6389 22.3333 10.1111C22.3333 10.5833 22.4931 10.9792 22.8125 11.2986C23.1319 11.6181 23.5278 11.7778 24 11.7778Z" fill="white"/>
</svg>
