<svg width="48" height="48" viewBox="0 0 48 48" fill="none" xmlns="http://www.w3.org/2000/svg">
<path d="M22.125 37.333L19.667 35.083C16.389 32.0557 13.514 29.132 11.042 26.312C8.56934 23.4927 7.33301 20.4997 7.33301 17.333C7.33301 14.8057 8.18734 12.6877 9.89601 10.979C11.604 9.27099 13.708 8.41699 16.208 8.41699C17.6527 8.41699 19.0557 8.75033 20.417 9.41699C21.7777 10.0837 22.972 11.1113 24 12.5C25.1113 11.1113 26.3197 10.0837 27.625 9.41699C28.9303 8.75033 30.3193 8.41699 31.792 8.41699C34.292 8.41699 36.396 9.27099 38.104 10.979C39.8127 12.6877 40.667 14.8057 40.667 17.333C40.667 20.4997 39.4307 23.4997 36.958 26.333C34.486 29.1663 31.5973 32.097 28.292 35.125L25.875 37.333C25.347 37.833 24.722 38.083 24 38.083C23.278 38.083 22.653 37.833 22.125 37.333Z" fill="white"/>
</svg>
