<svg width="48" height="48" viewBox="0 0 48 48" fill="none" xmlns="http://www.w3.org/2000/svg">
<path d="M26.1583 38.5262C25.592 38.5262 25.1798 38.3417 24.9217 37.9726C24.6631 37.6035 24.6324 37.1358 24.8296 36.5695L30.2177 22.213C30.3654 21.8191 30.6423 21.487 31.0486 21.2165C31.4543 20.9461 31.8662 20.8108 32.2842 20.8108C32.7029 20.8108 33.1151 20.9461 33.5208 21.2165C33.927 21.487 34.204 21.8191 34.3516 22.213L39.8505 36.496C40.0719 37.0617 40.0474 37.5415 39.777 37.9354C39.5059 38.3293 39.0506 38.5262 38.4111 38.5262C38.1406 38.5262 37.8885 38.44 37.6546 38.2676C37.4208 38.0951 37.2546 37.8737 37.156 37.6032L35.938 33.9122H28.8156L27.4497 37.6404C27.3511 37.8861 27.179 38.0951 26.9333 38.2676C26.6871 38.44 26.4287 38.5262 26.1583 38.5262ZM29.6641 31.3293H34.9052L32.3214 24.1325H32.2479L29.6641 31.3293ZM17.1526 18.6699C17.5217 19.3343 17.9277 19.9679 18.3706 20.5708C18.8135 21.1737 19.3057 21.7949 19.8472 22.4345C20.9544 21.2782 21.8708 20.0789 22.5966 18.8365C23.3223 17.5934 23.9435 16.2831 24.4602 14.9054H9.47569C9.05761 14.9054 8.70714 14.764 8.42428 14.4811C8.14143 14.1983 8 13.8475 8 13.4288C8 13.0108 8.14143 12.6603 8.42428 12.3774C8.70714 12.0946 9.05761 11.9532 9.47569 11.9532H18.3334V10.4766C18.3334 10.0585 18.4748 9.70802 18.7577 9.42517C19.0411 9.14172 19.3919 9 19.81 9C20.228 9 20.5788 9.14172 20.8622 9.42517C21.1451 9.70802 21.2865 10.0585 21.2865 10.4766V11.9532H30.1442C30.5623 11.9532 30.9128 12.0946 31.1956 12.3774C31.4785 12.6603 31.6199 13.0108 31.6199 13.4288C31.6199 13.8475 31.4785 14.1983 31.1956 14.4811C30.9128 14.764 30.5623 14.9054 30.1442 14.9054H27.4125C26.8716 16.6279 26.1583 18.3074 25.2725 19.9437C24.3867 21.5794 23.2916 23.1354 21.9872 24.6117L25.5674 28.2292L24.4602 31.2549L19.81 26.7154L13.4253 33.1009C13.1543 33.3713 12.8221 33.5066 12.4288 33.5066C12.035 33.5066 11.7028 33.3589 11.4324 33.0637C11.1371 32.7932 10.9895 32.4549 10.9895 32.0486C10.9895 31.6429 11.1371 31.3045 11.4324 31.0335L17.8905 24.5382C17.251 23.7752 16.6483 23.0064 16.0826 22.2316C15.5163 21.4563 14.9996 20.6626 14.5325 19.8507C14.2373 19.3098 14.2125 18.8424 14.4581 18.4485C14.7044 18.0546 15.1473 17.8577 15.7868 17.8577C16.0578 17.8577 16.3224 17.9377 16.5804 18.0977C16.8391 18.2578 17.0298 18.4485 17.1526 18.6699Z" fill="white"/>
</svg>
