<svg width="48" height="48" viewBox="0 0 48 48" fill="none" xmlns="http://www.w3.org/2000/svg">
<path d="M24 40.6667C23.0648 40.6667 22.2708 40.3403 21.618 39.6875C20.9653 39.0347 20.6389 38.2407 20.6389 37.3055H27.3611C27.3611 38.2407 27.0347 39.0347 26.382 39.6875C25.7292 40.3403 24.9352 40.6667 24 40.6667ZM18.6667 35.0278C18.2685 35.0278 17.9375 34.8958 17.6736 34.6319C17.4097 34.368 17.2778 34.037 17.2778 33.6389C17.2778 33.2407 17.4097 32.9097 17.6736 32.6458C17.9375 32.3819 18.2685 32.25 18.6667 32.25H29.3333C29.7315 32.25 30.0625 32.3819 30.3264 32.6458C30.5903 32.9097 30.7222 33.2407 30.7222 33.6389C30.7222 34.037 30.5903 34.368 30.3264 34.6319C30.0625 34.8958 29.7315 35.0278 29.3333 35.0278H18.6667ZM17.5555 30C15.6944 28.8241 14.2199 27.3194 13.132 25.4861C12.044 23.6528 11.5 21.6111 11.5 19.3611C11.5 15.9444 12.7292 13.0069 15.1875 10.5486C17.6458 8.09025 20.5833 6.86108 24 6.86108C27.4167 6.86108 30.3542 8.09025 32.8125 10.5486C35.2708 13.0069 36.5 15.9444 36.5 19.3611C36.5 21.6111 35.9607 23.6528 34.882 25.4861C33.8032 27.3194 32.3241 28.8241 30.4445 30H17.5555Z" fill="#1B1D2E"/>
</svg>
