<svg width="48" height="48" viewBox="0 0 48 48" fill="none" xmlns="http://www.w3.org/2000/svg">
<path d="M24.0362 37.0137C23.8209 37.0137 23.6114 36.9899 23.4076 36.9423C23.2044 36.8946 23.0193 36.8108 22.8523 36.6909C21.8478 36.0451 20.7773 35.5368 19.6407 35.166C18.5048 34.7958 17.3269 34.6107 16.1072 34.6107C15.1268 34.6107 14.1582 34.7421 13.2013 35.005C12.245 35.2679 11.3243 35.6387 10.4392 36.1174C9.88933 36.4044 9.34517 36.3864 8.80676 36.0632C8.26892 35.7406 8 35.2682 8 34.646V17.3906C8 17.0554 8.07778 16.7386 8.23333 16.4401C8.38831 16.141 8.62136 15.9198 8.93247 15.7763C10.0328 15.2023 11.1869 14.7778 12.3946 14.5028C13.6023 14.2273 14.828 14.0896 16.0719 14.0896C17.4828 14.0896 18.8518 14.2689 20.1789 14.6277C21.5065 14.9864 22.7802 15.5246 24 16.2421V34.3954C25.2198 33.6062 26.4992 33.0081 27.8383 32.6011C29.1781 32.1947 30.5296 31.9915 31.8928 31.9915C32.7538 31.9915 33.6625 32.0753 34.6187 32.2429C35.5756 32.41 36.4966 32.7208 37.3817 33.1754V15.0582C37.6687 15.1782 37.9557 15.2918 38.2427 15.3992C38.5297 15.5071 38.8046 15.6328 39.0675 15.7763C39.3786 15.9433 39.6117 16.1703 39.7667 16.4573C39.9222 16.7443 40 17.0554 40 17.3906V34.7536C40 35.3517 39.7371 35.8003 39.2113 36.0994C38.685 36.3984 38.1348 36.4044 37.5608 36.1174C36.6757 35.6387 35.755 35.2679 34.7987 35.005C33.8418 34.7421 32.8732 34.6107 31.8928 34.6107C30.6731 34.6107 29.5009 34.7958 28.3765 35.166C27.2526 35.5368 26.1884 36.0451 25.1839 36.6909C25.0163 36.8108 24.8369 36.8946 24.6458 36.9423C24.4546 36.9899 24.2514 37.0137 24.0362 37.0137ZM27.5516 29.8752C27.3123 30.0663 27.0611 30.1079 26.7983 30C26.5354 29.8927 26.4039 29.6835 26.4039 29.3724V17.9641C26.4039 17.9164 26.4636 17.7612 26.583 17.4983L33.8301 10.2151C34.0453 9.99981 34.2964 9.94614 34.5834 10.0541C34.8704 10.1614 35.0139 10.3706 35.0139 10.6817V22.9872C35.0139 23.0589 34.9301 23.2262 34.7625 23.4891L27.5516 29.8752Z" fill="white"/>
</svg>
