<svg width="48" height="48" viewBox="0 0 48 48" fill="none" xmlns="http://www.w3.org/2000/svg">
<path d="M37.5417 28.6111L34.3889 25.4583L35.5972 24.25C35.853 24 36.1785 23.875 36.5738 23.875C36.969 23.875 37.2917 24 37.5417 24.25L38.75 25.4583C39 25.7141 39.125 26.0396 39.125 26.4349C39.125 26.8301 39 27.1528 38.75 27.4028L37.5417 28.6111ZM24 39V35.8472L32.8055 27.0417L35.9583 30.1945L27.1528 39H24ZM9 30.3889V27.6111H21.2223V30.3889H9ZM9 23.5833V20.8055H28.1667V23.5833H9ZM9 16.7777V14H28.1667V16.7777H9Z" fill="white"/>
</svg>
