<svg width="48" height="48" viewBox="0 0 48 48" fill="none" xmlns="http://www.w3.org/2000/svg">
<path d="M24.5411 9.33207C24.4698 9.33395 24.3972 9.33989 24.3263 9.33989C22.9264 9.33989 21.7059 10.3418 21.0879 11.8164H19.0548V12.9844H20.7481C20.6882 13.3236 20.6581 13.6673 20.6581 14.0118C20.6581 15.3206 21.0958 16.5014 21.7734 17.3516C17.5813 18.0017 16.6752 23.8366 17.6718 29.1368H19.1112L19.0487 22.6563L20.2168 22.6445L20.2949 30.6035L20.8222 38.6153H23.6991V27.8106H24.8672V38.6153H27.5839L28.2832 29.205L28.3477 22.6446L29.5157 22.6563L29.4532 29.1368H30.9513C31.5209 26.393 31.4417 23.6193 30.7326 21.4493H31.9317V20.2813H30.2598C29.507 18.76 28.3595 17.6951 26.8242 17.4063C27.5323 16.5522 27.9923 15.3538 27.9923 14.0117C27.9923 11.5883 26.5504 9.57964 24.7051 9.33982C24.6745 9.3352 24.643 9.33295 24.6114 9.33201C24.588 9.33139 24.5645 9.33139 24.5411 9.33201L24.5411 9.33207ZM12.6133 9.37501C12.5932 9.37489 12.5736 9.3752 12.5528 9.37689C10.7746 9.52876 9.52344 11.4214 9.52344 13.2831C9.52344 14.1025 10.2426 14.9256 10.9473 14.6348C11.2101 14.5263 11.4984 14.4385 11.8028 14.371C12.8878 15.6468 13.9736 15.6966 15.0586 14.4023C15.2986 14.4646 15.5247 14.5432 15.7286 14.6348C16.4251 14.9475 17.6269 14.1038 17.6269 13.2831C17.6269 11.3967 16.3936 9.45376 14.5957 9.37689C13.8301 9.34426 13.7732 10.3898 13.6485 11.3496C13.5535 10.2756 13.2374 9.37839 12.6133 9.37501ZM24.3888 10.5196C25.4935 10.5196 26.3769 11.4029 26.3769 12.5078C26.3769 13.6126 25.4935 14.4961 24.3888 14.4961C23.4482 14.4961 22.6683 13.8564 22.4571 12.9844H24.1192V11.8164H22.5216C22.8003 11.0567 23.5278 10.5195 24.3888 10.5195L24.3888 10.5196ZM34.9942 15.7969C34.6823 16.2123 34.3458 16.6675 34.1348 17.2325C34.0926 17.3468 34.0574 17.4635 34.0294 17.5821L34.0175 17.5723C33.5491 17.1882 33.0285 16.9606 32.5469 16.7539L32.0859 17.8262C32.5534 18.0268 32.9679 18.2228 33.2774 18.4765C33.3241 18.5148 33.3674 18.5549 33.4102 18.5956C33.3955 18.6181 33.3807 18.6409 33.3672 18.6641C32.4391 20.2608 34.3572 24.8393 36.2305 24.7832C38.0422 24.7296 39.6597 20.1811 38.7149 18.6641C38.6754 18.6013 38.6317 18.5413 38.584 18.4844C38.6084 18.4376 38.6327 18.3912 38.6543 18.3438C38.9046 17.7952 38.9892 17.2351 39.0624 16.7207L37.9062 16.5567C37.8374 17.0398 37.7587 17.4704 37.6054 17.8223C37.379 17.7336 37.1343 17.6645 36.8808 17.6173C35.9759 17.5956 35.6679 18.1538 35.3086 19.0254C35.4116 18.4379 35.3729 18.0038 35.2167 17.6758C35.2209 17.6642 35.2242 17.6524 35.2284 17.6407C35.3661 17.2719 35.6252 16.9009 35.9277 16.4982L34.9941 15.7969L34.9942 15.7969ZM12.7872 16.5175V17.6836H13.9572V16.5175H12.7872ZM26.3516 18.795C27.2831 18.795 28.0559 19.4219 28.2754 20.2813H26.4688V21.4493H28.2247C27.9533 22.2216 27.222 22.7696 26.3516 22.7696C25.2468 22.7696 24.3633 21.888 24.3633 20.7832C24.3633 19.6785 25.2469 18.7951 26.3516 18.7951L26.3516 18.795ZM12.7872 18.8535V19.9648H13.9572V18.8535H12.7872ZM12.7872 21.1329V22.25H13.9572V21.1328H12.7872V21.1329Z" fill="white"/>
</svg>
